<svg xmlns="http://www.w3.org/2000/svg" viewBox="0 0 500 500"><g id="freepik--background-complete--inject-24"><polygon points="440.48 227.16 407.6 227.16 407.6 267.08 399.14 267.08 399.14 244.47 357.34 244.47 357.34 280.26 351.8 280.26 351.8 196.27 315.47 196.27 315.47 219.33 296.84 219.33 296.84 248.01 291.2 248.01 291.2 229.97 258.18 229.97 258.18 283.81 248.51 283.81 248.51 240.04 218.31 240.04 218.31 206.8 197.76 206.8 197.76 187.87 174 187.87 174 271.83 166.02 271.83 166.02 236.8 126.88 236.8 126.88 286.95 121.46 286.95 121.46 246.01 81.77 246.01 81.77 209.13 59.52 209.13 59.52 372.32 440.48 372.32 440.48 227.16" style="fill:#ebebeb"></polygon><path d="M430.88,232.18h5.57v7.63h-5.57Zm-9.64,7.63h5.57v-7.63h-5.57Zm-9.64,0h5.57v-7.63H411.6Zm19.28,11.48h5.57v-7.63h-5.57Zm-9.64,0h5.57v-7.63h-5.57Zm-9.64,0h5.57v-7.63H411.6Zm19.28,11.49h5.57v-7.63h-5.57Zm-9.64,0h5.57v-7.63h-5.57Zm-9.64,0h5.57v-7.63H411.6Zm19.28,11.48h5.57v-7.63h-5.57Zm-9.64,0h5.57v-7.63h-5.57Zm-9.64,0h5.57v-7.63H411.6ZM238.31,251.87h5.56V245.5h-5.56Zm-9.64,0h5.56V245.5h-5.56Zm-9.64,0h5.56V245.5H219Zm19.28,9.58h5.56v-6.37h-5.56Zm-9.64,0h5.56v-6.37h-5.56Zm-9.64,0h5.56v-6.37H219ZM238.31,271h5.56v-6.37h-5.56Zm-9.64,0h5.56v-6.37h-5.56ZM219,271h5.56v-6.37H219Zm19.28,9.58h5.56v-6.37h-5.56Zm-9.64,0h5.56v-6.37h-5.56Zm-9.64,0h5.56v-6.37H219Zm19.28,9.82h5.56v-6.37h-5.56Zm-9.64,0h5.56v-6.37h-5.56Zm-9.64,0h5.56v-6.37H219Zm19.28,9.82h5.56v-6.37h-5.56Zm-9.64,0h5.56v-6.37h-5.56Zm-9.64,0h5.56v-6.37H219Zm19.28,9.82h5.56V303.7h-5.56Zm-9.64,0h5.56V303.7h-5.56Zm-9.64,0h5.56V303.7H219Zm19.28,9.82h5.56v-6.37h-5.56Zm-9.64,0h5.56v-6.37h-5.56Zm-9.64,0h5.56v-6.37H219Zm143.34-65.74h32v-4.78h-32Zm0,9.26h32v-4.77h-32Zm0,9.26h32V267.9h-32Zm0,9.26h32v-4.77h-32Zm0,9.27h32v-4.78h-32Zm0,9.26h32v-4.77h-32Zm0,9.26h32V305h-32Zm0,9.26h32v-4.77h-32ZM131.84,246h29.44v-4.77H131.84Zm0,9.27h29.44v-4.78H131.84Zm0,9.26h29.44v-4.77H131.84Zm0,9.26h29.44V269H131.84Zm0,9.26h29.44V278.3H131.84Zm0,9.27h29.44v-4.78H131.84Zm0,9.26h29.44v-4.77H131.84Zm0,9.26h29.44v-4.77H131.84Zm0,8.8h29.44v-4.77H131.84Zm0,8.81h29.44v-4.78H131.84Zm0,8.8h29.44v-4.78H131.84Zm0,8.8h29.44v-4.78H131.84Zm0,8.8h29.44V350.1H131.84Zm-47.6-97.66h31.1v-4.77H84.24Zm0,9.27h31.1V261.7H84.24Zm0,9.26h31.1V271H84.24Zm0,9.26h31.1v-4.77H84.24Zm0,9.26h31.1v-4.77H84.24Zm0,9.27h31.1v-4.78H84.24Zm0,9.26h31.1V308H84.24Zm0,9.26h31.1v-4.77H84.24Zm0,8.29h31.1v-4.77H84.24Zm0,8.29h31.1v-4.77H84.24Zm0,8.29h31.1v-4.77H84.24Zm187.41-108h9.89V234.3h-9.89Zm0,8.94h9.89v-4.61h-9.89Zm0,9h9.89v-4.61h-9.89Zm0,8.94h9.89v-4.61h-9.89Zm0,8.95h9.89v-4.61h-9.89Zm0,8.94h9.89V279h-9.89Zm0,8.95h9.89V288h-9.89Zm0,8.94h9.89v-4.61h-9.89ZM258.2,238.91h9.89V234.3H258.2Zm0,8.94h9.89v-4.61H258.2Zm0,9h9.89v-4.61H258.2Zm0,8.94h9.89v-4.61H258.2Zm0,8.95h9.89v-4.61H258.2Zm0,8.94h9.89V279H258.2Zm0,8.95h9.89V288H258.2Zm0,8.94h9.89v-4.61H258.2ZM336,208.38h10.3v-7.27H336Zm-15.36,0h10.3v-7.27h-10.3ZM336,219.06h10.3v-7.27H336Zm-15.36,0h10.3v-7.27h-10.3ZM336,229.74h10.3v-7.27H336Zm-15.36,0h10.3v-7.27h-10.3ZM336,240.42h10.3v-7.27H336Zm-15.36,0h10.3v-7.27h-10.3ZM336,251.1h10.3v-7.27H336Zm-15.36,0h10.3v-7.27h-10.3ZM336,261.78h10.3v-7.27H336Zm-15.36,0h10.3v-7.27h-10.3ZM336,272.46h10.3v-7.27H336Zm-15.36,0h10.3v-7.27h-10.3ZM336,283.14h10.3v-7.27H336Zm-15.36,0h10.3v-7.27h-10.3Zm-19-53.4h10.3v-7.27H301.6Zm0,10.68h10.3v-7.27H301.6Zm0,10.68h10.3v-7.27H301.6Zm0,10.68h10.3v-7.27H301.6Zm0,10.68h10.3v-7.27H301.6Zm0,10.68h10.3v-7.27H301.6ZM336,293.69h10.3v-7.27H336Zm-15.36,0h10.3v-7.27h-10.3Zm-19,0h10.3v-7.27H301.6ZM336,304.25h10.3V297H336Zm-15.36,0h10.3V297h-10.3Zm-19,0h10.3V297H301.6ZM336,314.8h10.3v-7.27H336Zm-15.36,0h10.3v-7.27h-10.3Zm-19,0h10.3v-7.27H301.6ZM336,325.35h10.3v-7.27H336Zm-15.36,0h10.3v-7.27h-10.3Zm-19,0h10.3v-7.27H301.6ZM336,335.9h10.3v-7.27H336Zm-15.36,0h10.3v-7.27h-10.3Zm-19,0h10.3v-7.27H301.6Zm-93.05-118h5.56v-6.37h-5.56Zm-9.64,0h5.56v-6.37h-5.56Zm9.64,9.58h5.56v-6.37h-5.56Zm-9.64,0h5.56v-6.37h-5.56Zm9.64,9.58h5.56v-6.37h-5.56Zm-9.64,0h5.56v-6.37h-5.56Zm9.64,9.58h5.56v-6.37h-5.56Zm-9.64,0h5.56v-6.37h-5.56Zm9.64,9.82h5.56v-6.37h-5.56Zm-9.64,0h5.56v-6.37h-5.56Zm9.64,9.82h5.56v-6.37h-5.56Zm-9.64,0h5.56v-6.37h-5.56Zm9.64,9.82h5.56v-6.37h-5.56Zm-9.64,0h5.56v-6.37h-5.56Zm9.64,9.82h5.56v-6.37h-5.56Zm-9.64,0h5.56v-6.37h-5.56Zm9.64,9.92h5.56v-6.37h-5.56Zm-9.64,0h5.56v-6.37h-5.56Zm9.64,9.92h5.56v-6.37h-5.56Zm-9.64,0h5.56v-6.37h-5.56Zm9.64,9.92h5.56v-6.36h-5.56Zm-9.64,0h5.56v-6.36h-5.56Zm9.64,9.93h5.56V319.2h-5.56Zm-9.64,0h5.56V319.2h-5.56ZM72.72,220h5.57v-7.51H72.72Zm-9.64,0h5.57v-7.51H63.08Zm9.64,11.28h5.57v-7.5H72.72Zm-9.64,0h5.57v-7.5H63.08Zm9.64,11.29h5.57v-7.5H72.72Zm-9.64,0h5.57v-7.5H63.08Zm9.64,11.29h5.57v-7.5H72.72Zm-9.64,0h5.57v-7.5H63.08Zm9.64,11.57h5.57V258H72.72Zm-9.64,0h5.57V258H63.08ZM72.72,277h5.57v-7.5H72.72Zm-9.64,0h5.57v-7.5H63.08Zm9.64,11.57h5.57v-7.5H72.72Zm-9.64,0h5.57v-7.5H63.08Zm9.64,11.57h5.57v-7.5H72.72Zm-9.64,0h5.57v-7.5H63.08Zm9.64,11.69h5.57v-7.5H72.72Zm-9.64,0h5.57v-7.5H63.08Zm9.64,11.69h5.57V316H72.72Zm-9.64,0h5.57V316H63.08Zm9.64,11.69h5.57v-7.5H72.72Zm-9.64,0h5.57v-7.5H63.08Zm9.64,11.69h5.57v-7.5H72.72Zm-9.64,0h5.57v-7.5H63.08ZM187.93,217.86h5.56v-6.37h-5.56Zm-9.64,0h5.56v-6.37h-5.56Zm9.64-9.83h5.56v-6.37h-5.56Zm-9.64,0h5.56v-6.37h-5.56Zm9.64-9.82h5.56v-6.37h-5.56Zm-9.64,0h5.56v-6.37h-5.56Zm9.64,29.23h5.56v-6.37h-5.56Zm-9.64,0h5.56v-6.37h-5.56Zm9.64,9.58h5.56v-6.37h-5.56Zm-9.64,0h5.56v-6.37h-5.56Zm9.64,9.58h5.56v-6.37h-5.56Zm-9.64,0h5.56v-6.37h-5.56Zm9.64,9.82h5.56v-6.37h-5.56Zm-9.64,0h5.56v-6.37h-5.56Zm9.64,9.82h5.56v-6.37h-5.56Zm-9.64,0h5.56v-6.37h-5.56Zm9.64,9.82h5.56v-6.37h-5.56Zm-9.64,0h5.56v-6.37h-5.56Zm9.64,9.82h5.56v-6.37h-5.56Zm-9.64,0h5.56v-6.37h-5.56Zm9.64,9.92h5.56v-6.37h-5.56Zm-9.64,0h5.56v-6.37h-5.56Zm9.64,9.92h5.56v-6.37h-5.56Zm-9.64,0h5.56v-6.37h-5.56Zm9.64,9.92h5.56v-6.36h-5.56Zm-9.64,0h5.56v-6.36h-5.56Zm9.64,9.93h5.56V319.2h-5.56Zm-9.64,0h5.56V319.2h-5.56Z" style="fill:#fff"></path><path d="M438.7,175.34H308.84s12.88-35.16,32.69-35.16,26,24.27,26,24.27,13.36-13.19,24.35-13.19,20.53,17.43,20.53,17.43S428,159.32,438.7,175.34Z" style="fill:#ebebeb"></path><path d="M425.43,100.32H364.75S378.31,80.67,389,80.67s13.84,13.1,13.84,13.1,7.54-6.12,14.52-5S425.43,100.32,425.43,100.32Z" style="fill:#ebebeb"></path><path d="M179.5,135.86H61.3s16.19-36.14,33.51-38.4,25.59,26.86,25.59,26.86S131.57,114,140.35,114s15.56,13.55,15.56,13.55S173.48,118.29,179.5,135.86Z" style="fill:#ebebeb"></path><path d="M255.62,70H175.77s13.72-26.18,28.6-26.56,22.7,19.81,22.7,19.81S250.22,44.67,255.62,70Z" style="fill:#ebebeb"></path></g><g id="freepik--Shadow--inject-24"><ellipse cx="250" cy="436.16" rx="189.48" ry="24.68" style="fill:#ebebeb"></ellipse></g><g id="freepik--Floor--inject-24"><rect x="50.55" y="371.83" width="398.9" height="10.68" style="fill:#a6a6a6"></rect><polygon points="33.4 382.77 87.55 382.53 141.7 382.44 250 382.27 358.3 382.44 412.45 382.53 466.6 382.77 412.45 383.02 358.3 383.11 250 383.27 141.7 383.11 87.55 383.02 33.4 382.77" style="fill:#263238"></polygon></g><g id="freepik--Plants--inject-24"><path d="M190.7,371.83H110.29s.18-12,8.09-15.15a10.77,10.77,0,0,1,12.6,3s3.22-22,18-22,21.78,19,21.78,19,3.3-5.74,11.47-4.67S190.7,371.83,190.7,371.83Z" style="fill:#37474f"></path><path d="M449.45,371.83s-2.47-11.51-7.39-13.28-7.92,3.39-7.92,3.39S433,351,426,347.66s-12.22,3.45-12.22,3.45-5.35-13.95-14.92-13.95-14.4,20.41-14.4,20.41-5.65-6.08-11.44-2.65-5.79,16.91-5.79,16.91Z" style="fill:#37474f"></path><path d="M124.7,371.83H50.55s2.44-10.46,7.36-11.2,7.2,4.11,7.2,4.11-.22-14.58,9-17.06S91,358.07,91,358.07s5.76-7.34,13.6-6.87,9.84,12.61,9.84,12.61S121.54,359.59,124.7,371.83Z" style="fill:#455a64"></path><path d="M372.55,371.83H327s.11-6.78,4.59-8.58a6.1,6.1,0,0,1,7.14,1.71s1.82-12.47,10.17-12.47,12.34,10.76,12.34,10.76a6.4,6.4,0,0,1,6.5-2.65C372.36,361.21,372.55,371.83,372.55,371.83Z" style="fill:#455a64"></path></g><g id="freepik--character-2--inject-24"><path d="M403.3,436.55c-2.25.73-68.2-.26-70.62-1.85-.29-.18-.33-6.13-.25-14.31l-3.21-48.53L371,372l3.3,42s9.36,4.32,17.08,8.1l0,0a94.3,94.3,0,0,1,9.84,5.2C403.65,429.36,405.56,435.84,403.3,436.55Z" style="fill:#dd6a57"></path><path d="M403.3,436.55c-2.25.73-68.2-.26-70.62-1.85-.29-.18-.33-6.13-.25-14.31,16.3,3.63,59.73,9.51,61,6.1.5-1.36-.54-2.92-2.09-4.35a94.3,94.3,0,0,1,9.84,5.2C403.65,429.36,405.56,435.84,403.3,436.55Z" style="fill:#263238"></path><path d="M356.52,425.67a25.69,25.69,0,0,1,24.94-8.25" style="fill:#263238"></path><path d="M300.6,195.23s22.8,125.42,23.08,126.94c.05.2.13,2.52.25,6.29.65,20.69,1.27,85.21,1.27,85.21h49.58s-2.23-76.42-4.09-94.24c-2.37-22.75-27.94-124.2-27.94-124.2Z" style="fill:#79A2EE"></path><path d="M371.85,404.2c-1.29-.17-2.7-.11-4-.16-1.49-.05-3-.06-4.47-.12-2.87-.11-5.74-.18-8.62-.23-5.78-.09-11.59-.06-17.37.12l-4.78.17c-1.69.07-3.4.22-5.09.21-.13,0-.13.16,0,.16,2.92,0,5.87.25,8.78.35s5.74.16,8.62.2c5.78.08,11.59,0,17.37-.18,1.59-.06,3.18-.09,4.78-.13l2.55-.11c.75,0,1.51,0,2.26-.08C372,404.39,372,404.22,371.85,404.2Z" style="fill:#263238"></path><path d="M331.42,360.81q-.1-9.78-.23-19.57c-.07-6.55-.11-13.11-.67-19.64a183.14,183.14,0,0,0-2.95-19.2l-3.72-19.24q-3.77-19.44-7.55-38.88c-2.86-14.66-5.83-29.29-8.77-43.92,0-.1-.17-.05-.15,0q7.22,39,14.74,77.87,1.9,9.83,3.8,19.65c1.25,6.44,2.6,12.88,3.44,19.39a171.11,171.11,0,0,1,1.11,19.2q.15,10,.26,19.93c.2,14.78.37,29.56.6,44.33a.28.28,0,0,0,.55,0C331.76,387.45,331.58,374.13,331.42,360.81Z" style="fill:#263238"></path><path d="M334.67,195.23,322.75,317c-4.33-23.79-22.15-121.79-22.15-121.79Z" style="fill:#263238"></path><path d="M296.12,438c-2.31-.53-58.4-35.22-59.67-37.82-.16-.3,2.86-5.44,7.13-12.41l19.95-44.62,36,20.88-16.76,39.73s5.82,8.51,10.51,15.71v0A93,93,0,0,1,299,429C300.11,432,298.42,438.52,296.12,438Z" style="fill:#dd6a57"></path><path d="M296.12,438c-2.31-.53-58.4-35.22-59.67-37.82-.16-.3,2.86-5.44,7.13-12.41,12.12,11.48,46.39,38.81,49.23,36.53,1.13-.91,1-2.78.45-4.8A93,93,0,0,1,299,429C300.11,432,298.42,438.52,296.12,438Z" style="fill:#263238"></path><path d="M262.29,407.22a25.68,25.68,0,0,1,25.87,4.54" style="fill:#263238"></path><path d="M242.37,382.2l46.71,24s30.51-67.59,32.52-94c1.48-19.31,1.42-60.06,2.18-88.65,0,0,8.09-4.78,10.13-7.39s3.9-12,7.93-21H282.67c-14.15,27.47-3.5,39.69-3.5,45.68,0,28.92-3,61.63-4.38,67.31C271.89,320.11,242.37,382.2,242.37,382.2Z" style="fill:#79A2EE"></path><path d="M290.21,395.87c-1.1-.72-2.39-1.29-3.55-1.91-1.32-.7-2.65-1.36-4-2.07-2.53-1.36-5.08-2.68-7.64-4-5.16-2.62-10.39-5.14-15.67-7.51L255,378.46c-1.55-.69-3.15-1.3-4.67-2-.11-.05-.17.09-.06.14,2.62,1.27,5.16,2.8,7.74,4.17s5.09,2.66,7.65,4c5.17,2.6,10.41,5.1,15.7,7.45,1.45.64,2.9,1.32,4.35,2,.77.35,1.56.68,2.34,1s1.35.68,2.06.92A.1.1,0,0,0,290.21,395.87Z" style="fill:#263238"></path><path d="M288.34,198.41a55.31,55.31,0,0,0-6.16,15.1,37.75,37.75,0,0,0-.93,7.85,39.13,39.13,0,0,0,.91,8.14,56.75,56.75,0,0,1,1.28,9c.12,3.11-.06,6.21-.18,9.31-.23,6.18-.44,12.36-.67,18.54s-.44,12.47-.67,18.71c-.22,6.07-.16,12.25-1.16,18.26s-3.24,11.46-5.47,17-4.58,11.09-7,16.59c-4.79,11.06-9.9,22-15.23,32.77q-1,2.06-2,4.11a.14.14,0,0,0,.25.14c5.52-10.71,10.7-21.58,15.63-32.57q3.71-8.28,7.19-16.67a146.54,146.54,0,0,0,6.12-16.21c1.62-5.71,1.9-11.57,2.11-17.46l.66-18.54q.33-9.35.67-18.71.17-4.62.32-9.25a58.61,58.61,0,0,0-.21-9.08c-.36-2.86-1.09-5.65-1.57-8.49a34.9,34.9,0,0,1-.36-8.48,46.38,46.38,0,0,1,4.63-16.23c.61-1.26,1.26-2.5,2-3.71A.08.08,0,0,0,288.34,198.41Z" style="fill:#263238"></path><path d="M335.3,215.6a44.47,44.47,0,0,0-8,4.74c-2.65,1.82-5.09,3.91-7.64,5.86-.1.08,0,.24.1.17,2.7-1.72,5.52-3.23,8.18-5a52.35,52.35,0,0,0,7.52-5.56A.13.13,0,0,0,335.3,215.6Z" style="fill:#263238"></path><path d="M335.66,199c-.34,1.84-.79,3.67-1.19,5.5s-.64,3.47-1.1,5.17A8.72,8.72,0,0,1,331,214c-.67.63-1.41,1.18-2.13,1.76-.39.31-.81.6-1.21.92.05-.25.09-.49.14-.74l.36-2.1c.26-1.55.5-3.11.74-4.66.47-3.06.9-6.15,1.54-9.18,0-.12-.16-.17-.19-.05-.76,3-1.61,6-2.27,9-.32,1.48-1.49,8.8-1.54,9.32s-.09,1.08-.11,1.61a6.08,6.08,0,0,0,0,1.65.13.13,0,0,0,.24,0h0a6.09,6.09,0,0,0,.47-1.59c.13-.52.25-1,.34-1.58a5.58,5.58,0,0,0,.09-.59c.72-.43,1.4-1,2.07-1.5s1.47-1,2.15-1.62a8.33,8.33,0,0,0,2.64-4.11,31.14,31.14,0,0,0,.86-5.27c.23-2.08.4-4.17.69-6.24C335.87,198.88,335.68,198.83,335.66,199Z" style="fill:#263238"></path><path d="M286.42,211.79c.77-.4,3.77.31,9.21-.62a6.18,6.18,0,0,0,2.94-1.19,15.42,15.42,0,0,0,3.36-4.62,24.11,24.11,0,0,0,2.34-5.69c0-.12.2-.07.18.05-.2,1.13-.31,2.25-.61,3.37a20.79,20.79,0,0,1-1.13,3.06,12.35,12.35,0,0,1-3.44,5.08c-1.74,1.31-4.16,1.55-6.27,1.7-1.22.08-6,0-6.64-.73A.27.27,0,0,1,286.42,211.79Z" style="fill:#263238"></path><path d="M313.7,156.72a42,42,0,0,1-8.94,2.91c5.95-6.06,9.25-22.25,8.18-20.09-5.15,10.33-15,20.61-17.72,20.56h-.05a31.06,31.06,0,0,1-17.75-8.55,0,0,0,0,1,0,0c7.39-6.7,11.18-23,10.56-22.15-6.59,9.66-16.34,13.84-17.76,13.48h0c-4-6.35-5.59-12.07-4.71-12.4,6.39-2.37,13.4-10.82,20.1-19.92h0c6.61-9,11.05-18,19.09-25.45,7.35-6.85,18.42-5.77,23.44-.11C341.35,99.8,317.74,154.9,313.7,156.72Z" style="fill:#263238"></path><path d="M327.24,84a11,11,0,0,1,2.81,3.76,26.73,26.73,0,0,1,1.66,4.42,44.89,44.89,0,0,1,1.29,9.36,71,71,0,0,1-2,18.76,111.31,111.31,0,0,1-6,17.88c-.6,1.45-1.29,2.86-1.93,4.29l-2.06,4.24-2.21,4.15L316.54,155l2.09-4.21,2-4.25,1.92-4.28c.59-1.45,1.23-2.87,1.79-4.33a121.79,121.79,0,0,0,5.7-17.81,74.43,74.43,0,0,0,2.19-18.5,45,45,0,0,0-1-9.26,25.4,25.4,0,0,0-1.42-4.43,15.57,15.57,0,0,0-1.09-2.06A7.57,7.57,0,0,0,327.24,84Z" style="fill:#263238"></path><path d="M265.29,128.63a79.67,79.67,0,0,0,6.23-5.22c2-1.82,4-3.71,5.8-5.69s3.63-4,5.28-6.14,3.24-4.35,4.87-6.52c3.3-4.32,6.6-8.65,10.15-12.78,1.79-2,3.61-4.08,5.57-6a35.75,35.75,0,0,1,3.1-2.67,9.84,9.84,0,0,1,3.59-1.92,10.69,10.69,0,0,0-3.42,2.13,38.6,38.6,0,0,0-2.9,2.82c-1.87,2-3.62,4-5.32,6.14-3.41,4.21-6.7,8.53-9.93,12.89-1.66,2.16-3.26,4.34-5,6.48a70.25,70.25,0,0,1-5.46,6.11A77.54,77.54,0,0,1,265.29,128.63Z" style="fill:#263238"></path><path d="M327.81,127.73c6.87,9.57,15.07,33.8,18.79,36,16.37,9.89,27.84,17.48,30.91,19.89,4.06,3.19-12.28,25-14.7,22.41-1.7-1.8-12.14-10.58-25.7-22.91-11.26-10.25-14-28.9-15.75-47.85C320.32,123.8,324.65,123.34,327.81,127.73Z" style="fill:#dd6a57"></path><path d="M361.19,204.52c1.79,2.53,9.85,9.57,16.77,13.95,3.35,2.13,13.64,7.21,15.47,4.76s-1.05-4.2-1.05-4.2,4.67,1.5,6.29-1.14-2.95-5.21-2.95-5.21,4.91,1.18,6.33-1.56-3.59-4.57-3.59-4.57,4.43,1.3,4.65-1.46c.27-3.31-8.17-4.78-11.77-7.32-.81-.57-15.71-12.85-15.71-12.85Z" style="fill:#dd6a57"></path><path d="M398.41,206.47c-6.21-1.09-8.74-2.64-13.33-6.81-.09-.09-.23,0-.15.12,4.13,4.5,7,6.9,13.44,7C398.68,206.78,398.7,206.53,398.41,206.47Z" style="fill:#263238"></path><path d="M396,212.8c-6.35-1.7-9.11-3.36-14.24-7.37-.07-.06-.18.06-.11.12,4.71,4.36,7.64,6.69,14.21,7.56C396.12,213.15,396.25,212.88,396,212.8Z" style="fill:#263238"></path><path d="M391.87,218.86c-6-2.09-9.13-3.78-13.61-8.31a.12.12,0,0,0-.18.15c4.12,5.07,8,7.21,13.7,8.34C392.18,219.12,392.25,219,391.87,218.86Z" style="fill:#263238"></path><path d="M376.47,182.81s7.68,1.83,10.88,3.38,13,11.71,10.92,13.95c-2.68,2.89-9.49-1.86-12.52-4.62,0,0-6.19,6.69-11.81,4.34S376.47,182.81,376.47,182.81Z" style="fill:#dd6a57"></path><path d="M397.27,200.69c-4.35.88-8.09-3-11.23-5.47a.37.37,0,0,0-.58.15c-2.78,2.64-7.47,5.54-11.43,4.72a.09.09,0,1,0,0,.17c4.12,1.46,9-1,11.83-4.09,3.18,2.57,7.1,6.3,11.47,4.56C397.3,200.72,397.3,200.69,397.27,200.69Z" style="fill:#263238"></path><path d="M322.61,154.09l17.82-5.17s1.41,1.78.08,2.71c-1,.73-3-1.19-3-1.19s0,2.5-1.15,2.74-2.53-1.65-2.53-1.65-.24,2.45-1.49,2.84-2.18-1.71-2.18-1.71,0,2.59-1.26,3-2.32-1.89-2.32-1.89-.26,2.61-1.48,2.79C323.38,156.83,322.61,154.09,322.61,154.09Z" style="fill:#fff"></path><path d="M322.53,154.55l18.38-5.24s-6.8-14.67-12.54-21.61-7.91-1.65-8,6.77S322.53,154.55,322.53,154.55Z" style="fill:#37474f"></path><path d="M323.51,125.68a.35.35,0,1,1-.7,0,.35.35,0,1,1,.7,0Zm-.35,8.78a.36.36,0,1,0,.35.36A.35.35,0,0,0,323.16,134.46Zm7,0a.36.36,0,1,0,.36.36A.36.36,0,0,0,330.17,134.46Zm-3.5-4.57a.36.36,0,1,0,0,.71.36.36,0,0,0,0-.71Zm-3.51,13.71a.36.36,0,1,0,.35.35A.35.35,0,0,0,323.16,143.6Zm7,0a.36.36,0,0,0,0,.71.36.36,0,1,0,0-.71Zm7,0a.36.36,0,0,0,0,.71.36.36,0,1,0,0-.71ZM326.67,139a.36.36,0,1,0,.35.35A.36.36,0,0,0,326.67,139Zm7,0a.36.36,0,1,0,.35.35A.36.36,0,0,0,333.68,139Zm-10.52,13.7a.36.36,0,1,0,.35.36A.35.35,0,0,0,323.16,152.73Zm3.51-4.57a.36.36,0,1,0,0,.71.36.36,0,0,0,0-.71Zm7,0a.36.36,0,1,0,0,.71.36.36,0,0,0,0-.71Z" style="fill:#fff"></path><path d="M341,164.93l5.67,36.91s-56.86-.85-69.5-1.94c0,0,13.83-54.07,28.5-71.83.33-.41.67-.79,1-1.15a1.42,1.42,0,0,1,.2-.22c6.86-7.35,15.29-5.21,21-.49,1.42,1.18,14.88,16.59,16.38,24.38C345.53,157.46,341,164.93,341,164.93Z" style="fill:#37474f"></path><path d="M341,164.93l5.67,36.91s-56.86-.85-69.5-1.94c0,0,13.83-54.07,28.5-71.83.33-.41.67-.79,1-1.15a1.42,1.42,0,0,1,.2-.22c6.86-7.35,15.29-5.21,21-.49,1.42,1.18,14.88,16.59,16.38,24.38C345.53,157.46,341,164.93,341,164.93Z" style="fill:#37474f"></path><path d="M309.49,125.68a.36.36,0,0,1-.71,0,.36.36,0,0,1,.71,0Zm6.66-.35a.35.35,0,0,0-.36.35.36.36,0,0,0,.71,0A.35.35,0,0,0,316.15,125.33Zm7,0a.34.34,0,0,0-.35.35.35.35,0,1,0,.7,0A.34.34,0,0,0,323.16,125.33Zm-21,9.13a.36.36,0,1,0,.36.36A.36.36,0,0,0,302.12,134.46Zm7,0a.36.36,0,1,0,0,.71.36.36,0,0,0,0-.71Zm7,0a.36.36,0,1,0,0,.71.36.36,0,0,0,0-.71Zm7,0a.36.36,0,1,0,.35.36A.35.35,0,0,0,323.16,134.46Zm7,0a.36.36,0,1,0,.36.36A.36.36,0,0,0,330.17,134.46Zm-24.54-4.57a.36.36,0,0,0,0,.71.36.36,0,0,0,0-.71Zm7,0a.36.36,0,1,0,.36.36A.36.36,0,0,0,312.64,129.89Zm7,0a.36.36,0,1,0,.36.36A.36.36,0,0,0,319.65,129.89Zm7,0a.36.36,0,1,0,0,.71.36.36,0,0,0,0-.71ZM302.12,143.6a.36.36,0,0,0,0,.71.36.36,0,1,0,0-.71Zm7,0a.36.36,0,1,0,.35.35A.36.36,0,0,0,309.14,143.6Zm7,0a.36.36,0,1,0,.35.35A.36.36,0,0,0,316.15,143.6Zm7,0a.36.36,0,1,0,.35.35A.35.35,0,0,0,323.16,143.6Zm7,0a.36.36,0,0,0,0,.71.36.36,0,1,0,0-.71Zm7,0a.36.36,0,0,0,0,.71.36.36,0,1,0,0-.71ZM305.63,139a.36.36,0,0,0,0,.71.36.36,0,0,0,0-.71Zm7,0a.36.36,0,0,0,0,.71.36.36,0,1,0,0-.71Zm7,0a.36.36,0,0,0,0,.71.36.36,0,1,0,0-.71Zm7,0a.36.36,0,1,0,.35.35A.36.36,0,0,0,326.67,139Zm7,0a.36.36,0,1,0,.35.35A.36.36,0,0,0,333.68,139Zm-38.57,13.7a.36.36,0,0,0,0,.71.36.36,0,0,0,0-.71Zm7,0a.36.36,0,1,0,.36.36A.36.36,0,0,0,302.12,152.73Zm7,0a.36.36,0,1,0,0,.71.36.36,0,0,0,0-.71Zm7,0a.36.36,0,1,0,0,.71.36.36,0,0,0,0-.71Zm7,0a.36.36,0,1,0,.35.36A.35.35,0,0,0,323.16,152.73Zm7,0a.36.36,0,1,0,.36.36A.36.36,0,0,0,330.17,152.73Zm7,0a.36.36,0,1,0,.36.36A.36.36,0,0,0,337.18,152.73Zm6.89,0a.36.36,0,1,0,.36.36A.36.36,0,0,0,344.07,152.73Zm-45.45-4.57a.36.36,0,1,0,0,.71.36.36,0,0,0,0-.71Zm7,0a.36.36,0,0,0,0,.71.36.36,0,0,0,0-.71Zm7,0a.36.36,0,1,0,.36.36A.36.36,0,0,0,312.64,148.16Zm7,0a.36.36,0,1,0,.36.36A.36.36,0,0,0,319.65,148.16Zm7,0a.36.36,0,1,0,0,.71.36.36,0,0,0,0-.71Zm7,0a.36.36,0,1,0,0,.71.36.36,0,0,0,0-.71Zm7,0a.36.36,0,1,0,.36.36A.36.36,0,0,0,340.69,148.16Zm-45.58,13.71a.36.36,0,0,0,0,.71.36.36,0,0,0,0-.71Zm7,0a.36.36,0,1,0,.36.36A.36.36,0,0,0,302.12,161.87Zm7,0a.36.36,0,1,0,0,.71.36.36,0,0,0,0-.71Zm7,0a.36.36,0,1,0,0,.71.36.36,0,0,0,0-.71Zm7,0a.36.36,0,1,0,.35.36A.35.35,0,0,0,323.16,161.87Zm7,0a.36.36,0,1,0,.36.36A.36.36,0,0,0,330.17,161.87Zm7,0a.36.36,0,1,0,.36.36A.36.36,0,0,0,337.18,161.87ZM291.6,157.3a.36.36,0,0,0,0,.71.36.36,0,1,0,0-.71Zm7,0a.36.36,0,1,0,.35.35A.36.36,0,0,0,298.62,157.3Zm7,0a.36.36,0,0,0,0,.71.36.36,0,0,0,0-.71Zm7,0a.36.36,0,0,0,0,.71.36.36,0,1,0,0-.71Zm7,0a.36.36,0,0,0,0,.71.36.36,0,1,0,0-.71Zm7,0a.36.36,0,1,0,.35.35A.36.36,0,0,0,326.67,157.3Zm7,0a.36.36,0,1,0,.35.35A.36.36,0,0,0,333.68,157.3Zm7,0a.36.36,0,0,0,0,.71.36.36,0,1,0,0-.71ZM288.1,171a.36.36,0,1,0,.35.35A.36.36,0,0,0,288.1,171Zm7,0a.36.36,0,0,0,0,.71.36.36,0,0,0,0-.71Zm7,0a.36.36,0,0,0,0,.71.36.36,0,1,0,0-.71Zm7,0a.36.36,0,1,0,.35.35A.36.36,0,0,0,309.14,171Zm7,0a.36.36,0,1,0,.35.35A.36.36,0,0,0,316.15,171Zm7,0a.36.36,0,1,0,.35.35A.35.35,0,0,0,323.16,171Zm7,0a.36.36,0,0,0,0,.71.36.36,0,1,0,0-.71Zm7,0a.36.36,0,0,0,0,.71.36.36,0,1,0,0-.71Zm-45.58-4.57a.36.36,0,0,0,0,.71.36.36,0,1,0,0-.71Zm7,0a.36.36,0,1,0,.35.35A.36.36,0,0,0,298.62,166.44Zm7,0a.36.36,0,0,0,0,.71.36.36,0,0,0,0-.71Zm7,0a.36.36,0,0,0,0,.71.36.36,0,1,0,0-.71Zm7,0a.36.36,0,0,0,0,.71.36.36,0,1,0,0-.71Zm7,0a.36.36,0,1,0,.35.35A.36.36,0,0,0,326.67,166.44Zm7,0a.36.36,0,1,0,.35.35A.36.36,0,0,0,333.68,166.44Zm7,0a.36.36,0,0,0,0,.71.36.36,0,1,0,0-.71Zm-52.59,13.7a.36.36,0,1,0,0,.71.36.36,0,0,0,0-.71Zm7,0a.36.36,0,0,0,0,.71.36.36,0,0,0,0-.71Zm7,0a.36.36,0,1,0,.36.36A.36.36,0,0,0,302.12,180.14Zm7,0a.36.36,0,1,0,0,.71.36.36,0,0,0,0-.71Zm7,0a.36.36,0,1,0,0,.71.36.36,0,0,0,0-.71Zm7,0a.36.36,0,1,0,.35.36A.35.35,0,0,0,323.16,180.14Zm7,0a.36.36,0,1,0,.36.36A.36.36,0,0,0,330.17,180.14Zm7,0a.36.36,0,1,0,.36.36A.36.36,0,0,0,337.18,180.14Zm-52.59-4.57a.36.36,0,1,0,.36.36A.36.36,0,0,0,284.59,175.57Zm7,0a.36.36,0,1,0,.36.36A.36.36,0,0,0,291.6,175.57Zm7,0a.36.36,0,1,0,0,.71.36.36,0,0,0,0-.71Zm7,0a.36.36,0,0,0,0,.71.36.36,0,0,0,0-.71Zm7,0a.36.36,0,1,0,.36.36A.36.36,0,0,0,312.64,175.57Zm7,0a.36.36,0,1,0,.36.36A.36.36,0,0,0,319.65,175.57Zm7,0a.36.36,0,1,0,0,.71.36.36,0,0,0,0-.71Zm7,0a.36.36,0,1,0,0,.71.36.36,0,0,0,0-.71Zm7,0a.36.36,0,1,0,.36.36A.36.36,0,0,0,340.69,175.57Zm-59.6,13.71a.36.36,0,1,0,.35.35A.36.36,0,0,0,281.09,189.28Zm7,0a.36.36,0,1,0,.35.35A.36.36,0,0,0,288.1,189.28Zm7,0a.36.36,0,0,0,0,.71.36.36,0,0,0,0-.71Zm7,0a.36.36,0,0,0,0,.71.36.36,0,1,0,0-.71Zm7,0a.36.36,0,1,0,.35.35A.36.36,0,0,0,309.14,189.28Zm7,0a.36.36,0,1,0,.35.35A.36.36,0,0,0,316.15,189.28Zm7,0a.36.36,0,1,0,.35.35A.35.35,0,0,0,323.16,189.28Zm7,0a.36.36,0,0,0,0,.71.36.36,0,1,0,0-.71Zm7,0a.36.36,0,0,0,0,.71.36.36,0,1,0,0-.71Zm7,0a.36.36,0,1,0,.35.35A.36.36,0,0,0,344.2,189.28Zm-59.61-4.57a.36.36,0,0,0,0,.71.36.36,0,1,0,0-.71Zm7,0a.36.36,0,0,0,0,.71.36.36,0,1,0,0-.71Zm7,0a.36.36,0,1,0,.35.35A.36.36,0,0,0,298.62,184.71Zm7,0a.36.36,0,0,0,0,.71.36.36,0,0,0,0-.71Zm7,0a.36.36,0,0,0,0,.71.36.36,0,1,0,0-.71Zm7,0a.36.36,0,0,0,0,.71.36.36,0,1,0,0-.71Zm7,0a.36.36,0,1,0,.35.35A.36.36,0,0,0,326.67,184.71Zm7,0a.36.36,0,1,0,.35.35A.36.36,0,0,0,333.68,184.71Zm7,0a.36.36,0,0,0,0,.71.36.36,0,1,0,0-.71Zm-59.6,13.71a.36.36,0,1,0,.35.35A.36.36,0,0,0,281.09,198.42Zm7,0a.36.36,0,1,0,.35.35A.36.36,0,0,0,288.1,198.42Zm7,0a.36.36,0,0,0,0,.71.36.36,0,0,0,0-.71Zm7,0a.36.36,0,0,0,0,.71.36.36,0,1,0,0-.71Zm7,0a.36.36,0,1,0,.35.35A.36.36,0,0,0,309.14,198.42Zm7,0a.36.36,0,1,0,.35.35A.36.36,0,0,0,316.15,198.42Zm7,0a.36.36,0,1,0,.35.35A.35.35,0,0,0,323.16,198.42Zm7,0a.36.36,0,0,0,0,.71.36.36,0,1,0,0-.71Zm7,0a.36.36,0,0,0,0,.71.36.36,0,1,0,0-.71Zm7,0a.36.36,0,1,0,.35.35A.36.36,0,0,0,344.2,198.42Zm-59.61-4.57a.35.35,0,0,0-.35.35.36.36,0,0,0,.71,0A.36.36,0,0,0,284.59,193.85Zm7,0a.35.35,0,0,0-.35.35.36.36,0,0,0,.71,0A.36.36,0,0,0,291.6,193.85Zm7,0a.36.36,0,0,0-.36.35.36.36,0,0,0,.71,0A.35.35,0,0,0,298.62,193.85Zm7,0a.35.35,0,0,0-.35.35.34.34,0,0,0,.35.35.35.35,0,0,0,.35-.35A.35.35,0,0,0,305.63,193.85Zm7,0a.35.35,0,0,0-.35.35.36.36,0,0,0,.71,0A.36.36,0,0,0,312.64,193.85Zm7,0a.35.35,0,0,0-.35.35.36.36,0,0,0,.71,0A.36.36,0,0,0,319.65,193.85Zm7,0a.36.36,0,0,0-.36.35.36.36,0,0,0,.71,0A.35.35,0,0,0,326.67,193.85Zm7,0a.36.36,0,0,0-.36.35.36.36,0,0,0,.71,0A.35.35,0,0,0,333.68,193.85Zm7,0a.35.35,0,0,0-.35.35.36.36,0,0,0,.71,0A.36.36,0,0,0,340.69,193.85Z" style="fill:#fff"></path><path d="M309.57,140.25c-5,15.89-12.47,31.46-25.67,42.93-5.54,4.81-18.79-.63-20-5.59-3-11.68-2.62-31.41-.37-41.05.8-3.41,25.6,1.46,25.5,5.2a62.06,62.06,0,0,1-.89,7.52c.48.91,4.14-6.52,13.19-17.24C313.66,117.39,311.3,134.8,309.57,140.25Z" style="fill:#dd6a57"></path><path d="M263.05,139.08A120.78,120.78,0,0,1,267.17,122c1.2-3.69,3.52-10,5.57-12.34,3.07-3.55,18.17-16.46,21.38-12.86,2.9,3.25-2.88,6.77-2.88,6.77s6-4.44,7.85-.33-6.08,8-6.08,8,6-5.15,7.6-.57c1.38,4-7.32,9.42-7.32,9.42s5.7-6.11,7.52-2.17c2,4.35-10,14.14-10,14.14-.22,9.11-.63,10.15-3.27,16.24C287,149.37,263.05,139.08,263.05,139.08Z" style="fill:#dd6a57"></path><path d="M295,109.87l-1.83,1a36.08,36.08,0,0,0-3.49,2.08c-1.08.76-2.12,1.57-3.14,2.41s-2.08,1.89-3.18,2.75a.08.08,0,1,0,.1.12,36.16,36.16,0,0,1,3.38-2.39c1.12-.76,2.25-1.51,3.37-2.25s2.16-1.52,3.24-2.28c.54-.38,1.1-.73,1.65-1.08a11.93,11.93,0,0,0,1.57-1s0-.11-.07-.09A8.45,8.45,0,0,0,295,109.87Z" style="fill:#263238"></path><path d="M292.5,102.63a54.28,54.28,0,0,0-6.57,3.72,37.8,37.8,0,0,0-5.8,4.84c-.06.06,0,.17.1.12,2.09-1.41,4.17-2.86,6.24-4.3,1-.71,5.72-3.77,6.17-4.16C292.75,102.76,292.62,102.59,292.5,102.63Z" style="fill:#263238"></path><path d="M297.5,116.61a51.65,51.65,0,0,0-6.11,3.6,49,49,0,0,0-5.24,5c-.06.07,0,.18.1.12,1.86-1.53,3.7-3.09,5.64-4.54.94-.7,4.87-3.29,5.71-4A.1.1,0,0,0,297.5,116.61Z" style="fill:#263238"></path><path d="M288.94,146.88l16.33,8.79s-.24,2.26-1.85,2c-1.24-.21-1.33-3-1.33-3s-1.76,1.77-2.74,1.14-.64-3-.64-3-1.9,1.58-3.06,1-.35-2.74-.35-2.74-1.83,1.82-3,1.26-.33-3-.33-3-2,1.68-3,1C287.56,149.37,288.94,146.88,288.94,146.88Z" style="fill:#fff"></path><path d="M288.56,147l16.84,9.06s7.1-14.79,7.82-23.77-5.19-8.25-11.1-2.26S288.56,147,288.56,147Z" style="fill:#37474f"></path><path d="M288.56,147l16.84,9.06s7.1-14.79,7.82-23.77-5.19-8.25-11.1-2.26S288.56,147,288.56,147Z" style="fill:#37474f"></path><path d="M309.49,125.68a.36.36,0,0,1-.71,0,.36.36,0,0,1,.71,0Zm-7.37,8.78a.36.36,0,1,0,.36.36A.36.36,0,0,0,302.12,134.46Zm7,0a.36.36,0,1,0,0,.71.36.36,0,0,0,0-.71Zm-3.51-4.57a.36.36,0,0,0,0,.71.36.36,0,0,0,0-.71Zm7,0a.36.36,0,1,0,.36.36A.36.36,0,0,0,312.64,129.89ZM295.11,143.6a.36.36,0,0,0,0,.71.36.36,0,0,0,0-.71Zm7,0a.36.36,0,0,0,0,.71.36.36,0,1,0,0-.71Zm7,0a.36.36,0,1,0,.35.35A.36.36,0,0,0,309.14,143.6ZM298.62,139a.36.36,0,1,0,.35.35A.36.36,0,0,0,298.62,139Zm7,0a.36.36,0,0,0,0,.71.36.36,0,0,0,0-.71Zm-3.51,13.7a.36.36,0,1,0,.36.36A.36.36,0,0,0,302.12,152.73Zm-3.5-4.57a.36.36,0,1,0,0,.71.36.36,0,0,0,0-.71Zm7,0a.36.36,0,0,0,0,.71.36.36,0,0,0,0-.71Z" style="fill:#fff"></path><path d="M312,143.57a45.79,45.79,0,0,0-2.75,3.76c.82-2.11,1.64-4.23,2.32-6.39,0,0-.05-.06-.07,0-1.24,2.47-2.29,5.06-3.36,7.61-.51,1.21-1,2.43-1.47,3.65l-.7,1.86a6.06,6.06,0,0,0-.6,1.91.08.08,0,0,0,.14.06,5.66,5.66,0,0,0,.85-1.68c.27-.6.53-1.21.79-1.82q.79-1.86,1.53-3.75c1.2-1.66,2.22-3.43,3.43-5.08C312.14,143.6,312,143.49,312,143.57Z" style="fill:#263238"></path><path d="M315.09,121.64c-6.95,1.11-3.24,8.77-.56,11.9s6.25,5.39,8.77,5,1.34-6.69,1.34-6.69,4,2.73,5.55,1.65S323.25,120.34,315.09,121.64Z" style="fill:#fff"></path><path d="M313,125.71c.4,1,6.35,7,11.05,6,1.53-.31.23-8.74.23-8.74l.05-.64.63-9-11.23-5-1.61-.65s0,2.48,0,5.56c0,.15,0,.29,0,.44s0,.34,0,.5c0,.46,0,.94,0,1.4s0,.71,0,1.08,0,.74,0,1.12A58.94,58.94,0,0,0,313,125.71Z" style="fill:#dd6a57"></path><path d="M325,113.37l-.35,4.94c-4.82,2.82-10.38,1.79-12.33,1.29,0-.6-.07-1.2-.1-1.81,0-.38,0-.74,0-1.12s0-.72,0-1.08,0-.94,0-1.4c0-.16,0-.32,0-.5v-.44c0-3.08,0-5.56,0-5.56l1.61.65Z" style="fill:#263238"></path><path d="M301.44,100.39c-1.06,15.82,8.3,18.24,11.71,18.46,3.1.21,13.67.51,16.36-15.12s-4.34-21.13-11.4-22S302.5,84.56,301.44,100.39Z" style="fill:#dd6a57"></path><path d="M304.25,96.29a9.81,9.81,0,0,0,1.08-.21,1.76,1.76,0,0,0,1.05-.43.56.56,0,0,0,0-.69,1.44,1.44,0,0,0-1.38-.34,2.09,2.09,0,0,0-1.3.71A.6.6,0,0,0,304.25,96.29Z" style="fill:#263238"></path><path d="M314.44,98c-.37-.05-.7-.16-1.07-.24a1.79,1.79,0,0,1-1-.45.57.57,0,0,1,0-.69,1.38,1.38,0,0,1,1.38-.31,2,2,0,0,1,1.28.74A.6.6,0,0,1,314.44,98Z" style="fill:#263238"></path><path d="M312.19,101.14s.08.06.08.1c-.07,1.08,0,2.33,1,2.72a0,0,0,0,1,0,.06C312.06,103.81,312,102.15,312.19,101.14Z" style="fill:#263238"></path><path d="M313.19,100.05c1.74-.07,1.76,3.41.14,3.48S311.73,100.11,313.19,100.05Z" style="fill:#263238"></path><path d="M313.88,100.23c.3.2.6.54,1,.58s.74-.33,1-.68c0,0,.06,0,.06,0,0,.67-.24,1.36-1,1.46s-1.12-.5-1.29-1.17C313.65,100.34,313.75,100.15,313.88,100.23Z" style="fill:#263238"></path><path d="M306.2,100.89s-.09.06-.09.1c.05,1.08-.08,2.32-1.05,2.69,0,0,0,.07,0,.06C306.26,103.56,306.41,101.91,306.2,100.89Z" style="fill:#263238"></path><path d="M305.22,99.78c-1.74-.11-1.83,3.37-.22,3.47S306.68,99.87,305.22,99.78Z" style="fill:#263238"></path><path d="M304.49,100c-.28.17-.57.5-.9.52s-.65-.37-.88-.74c0,0,0,0-.06,0,0,.67.17,1.37.8,1.51s1-.42,1.21-1.08C304.69,100.11,304.6,99.92,304.49,100Z" style="fill:#263238"></path><path d="M313.12,110c-.25.26-.49.62-.88.67a2.79,2.79,0,0,1-1.17-.21,0,0,0,0,0-.05.06,1.47,1.47,0,0,0,1.4.52,1.14,1.14,0,0,0,.8-1C313.24,110,313.15,110,313.12,110Z" style="fill:#263238"></path><path d="M307.77,105.75s-.24,1.61-.25,2.37a16,16,0,0,1,4.39.68c.34.11.34-.17,0-.4a6.38,6.38,0,0,0-3.69-.93c-.05-.22.41-2.48.29-2.49a6.61,6.61,0,0,0-1.73.38c.39-3.37,1.32-6.65,1.66-10a.1.1,0,0,0-.2,0A55.22,55.22,0,0,0,306,106C305.89,106.44,307.46,105.88,307.77,105.75Z" style="fill:#263238"></path><path d="M309.27,108.2a4.12,4.12,0,0,0,2.14,1.6c1.32.21,1.47-1,0-1.65A4,4,0,0,0,309.27,108.2Z" style="fill:#263238"></path><path d="M311.41,109.8a2.66,2.66,0,0,1-1.32-.7c.27-.41.9-.86,2.31-.1C312.61,109.51,312.24,109.93,311.41,109.8Z" style="fill:#ff99ba"></path><path d="M329,103.25c-2.6.22-3.23-5.21-3.23-5.21s-5.28,0-7.08-7.51A11.66,11.66,0,0,0,321,96.78s-9.31-.91-13.29-8.66c0,0,1.6,3.95,3.07,5.35A10.92,10.92,0,0,1,305,89.26s-1.59,4.5-2.84,5.75c0,0,.26-16.27,15.34-14.66,0,0,9.44.55,12.89,8S329,103.25,329,103.25Z" style="fill:#263238"></path><path d="M326.91,104.77s3.37-5,5.64-3.82-.19,8.41-2.81,9.44a2.67,2.67,0,0,1-3.62-1.37Z" style="fill:#dd6a57"></path><path d="M331.79,103a0,0,0,0,1,0,.07c-1.84.79-2.78,2.52-3.42,4.31a1.47,1.47,0,0,1,2.2-.45c.05,0,0,.11,0,.1a1.65,1.65,0,0,0-1.8.61,8.39,8.39,0,0,0-.84,1.49c-.08.16-.38.08-.32-.11v0C327.5,106.62,329.26,103.29,331.79,103Z" style="fill:#263238"></path><path d="M327.91,109.71a.78.78,0,1,0,.77-.79A.78.78,0,0,0,327.91,109.71Z" style="fill:#79A2EE"></path><path d="M333.82,103.82h-1.37a.38.38,0,0,1-.37-.37h0a.37.37,0,0,1,.37-.36h1.37a.36.36,0,0,1,.36.36h0A.37.37,0,0,1,333.82,103.82Z" style="fill:#79A2EE"></path><path d="M333.79,102.61l-1.35.24a.36.36,0,0,1-.42-.3h0a.36.36,0,0,1,.3-.42l1.34-.24a.38.38,0,0,1,.43.3h0A.36.36,0,0,1,333.79,102.61Z" style="fill:#79A2EE"></path></g><g id="freepik--character-1--inject-24"><path d="M270.42,446.45c-2.28.77-67.78,1-70.29-.57-.95-.59-1.54-10.13-1.92-21.67-.09-2.49-.16-5.07-.22-7.68l-5.31-34.94,43.79-.28,4.13,34.94-.16,7.69s25.11,11.13,27.67,13.14S272.71,445.68,270.42,446.45Z" style="fill:#eb9481"></path><path d="M270.42,446.45c-2.28.77-67.78,1-70.29-.57-1.15-.72-1.78-14.65-2.14-29.35l42.61-.28-.16,7.69s25.11,11.13,27.67,13.14S272.71,445.68,270.42,446.45Z" style="fill:#fff"></path><path d="M270.42,446.45c-2.28.77-67.78,1-70.29-.57-.95-.59-1.54-10.13-1.92-21.67l42.23-.27s25.11,11.13,27.67,13.14S272.71,445.68,270.42,446.45Z" style="fill:#79A2EE"></path><path d="M269.47,443.83c-11-.23-55.29-.12-66.16.48-.09,0-.09.07,0,.07,10.88.47,55.19,0,66.17-.37C269.71,444,269.71,443.84,269.47,443.83Z" style="fill:#263238"></path><path d="M263.89,434.74a8.85,8.85,0,0,0-6.56,2.71,8.5,8.5,0,0,0-2.43,5.87c0,.06.12.07.13,0a10.2,10.2,0,0,1,8.86-8.44A.07.07,0,0,0,263.89,434.74Z" style="fill:#263238"></path><path d="M244.7,425c-4.4,0-9.49,1.52-12.21,5.12-.1.14.1.29.23.22a60.66,60.66,0,0,1,12.06-4.8A.28.28,0,0,0,244.7,425Z" style="fill:#263238"></path><path d="M248.1,426.33c-4.4-.05-9.49,1.52-12.21,5.12-.1.14.1.29.23.22a60.34,60.34,0,0,1,12-4.8A.28.28,0,0,0,248.1,426.33Z" style="fill:#263238"></path><path d="M251.49,427.64c-4.39-.05-9.48,1.52-12.2,5.13-.11.13.09.28.22.21a60.66,60.66,0,0,1,12.06-4.8A.28.28,0,0,0,251.49,427.64Z" style="fill:#263238"></path><path d="M254.89,429c-4.4-.05-9.48,1.52-12.2,5.13-.11.14.09.28.22.22A60.1,60.1,0,0,1,255,429.49.28.28,0,0,0,254.89,429Z" style="fill:#263238"></path><path d="M206.07,433.87c-4.93,0-4.89,7.7.05,7.67S211,433.84,206.07,433.87Z" style="fill:#263238"></path><path d="M249.41,413.27c-2.23-1.83-5,0-6.4,1.9a23,23,0,0,0-3.95,11.25c0,.09.07.13.14.13a.54.54,0,0,0,.79.35c3.12-2.18,6.73-4.12,9.09-7.18C250.46,417.92,251.52,415,249.41,413.27Zm-5.36,9.36c-1.51,1.11-3.07,2.14-4.53,3.3a66.47,66.47,0,0,1,2.45-6.52,24.86,24.86,0,0,1,1.59-3c.95-1.46,5.25-5.15,5.71-.37C249.52,418.71,245.85,421.31,244.05,422.63Z" style="fill:#263238"></path><path d="M228.15,428.09c3.83.57,7.77-.53,11.53-1.13a.53.53,0,0,0,.32-.8.12.12,0,0,0,0-.19,23.21,23.21,0,0,0-10.66-5.36c-2.31-.44-5.58.19-5.92,3.06C223.13,426.39,225.91,427.75,228.15,428.09Zm-2.66-2.49c-3-3.76,2.66-4.09,4.36-3.7a24.51,24.51,0,0,1,3.21,1,67,67,0,0,1,6.29,3c-1.87.18-3.7.51-5.56.76C231.58,427,227.13,427.67,225.49,425.6Z" style="fill:#263238"></path><path d="M128.34,220.1s40.85,91.51,42.21,97.58c2.09,9.33,23.18,96.5,23.18,96.5l52.91-.95s-19.12-76.27-27.75-103c-6.22-19.28-41.1-88.24-41.1-88.24Z" style="fill:#455a64"></path><path d="M241.83,404.45c-7.6-.05-34.52-.36-44.64.59-.07,0-.07.13,0,.14,3.48.5,37-.28,44.64-.52A.11.11,0,1,0,241.83,404.45Z" style="fill:#263238"></path><path d="M197.94,400.56Q194,383,190.08,365.38t-7.89-35.18c-2.56-11.4-4.79-22.92-9.23-33.8-2.16-5.27-4.64-10.41-7.09-15.55q-3.87-8.13-7.78-16.25-7.78-16.19-15.65-32.35l-2-4c0-.07-.18,0-.14.07,4.9,10.83,10,21.59,15,32.36L163,276.83c2.53,5.39,5.17,10.73,7.55,16.18a116.76,116.76,0,0,1,5.79,16.18c1.53,5.59,2.75,11.26,4,16.91q3.94,17.58,7.92,35.16t7.93,35.16l1,4.37C197.27,401.3,198.06,401.06,197.94,400.56Z" style="fill:#263238"></path><path d="M192.68,408.9l-.34-.47c-4.74-19.59-20-82.88-21.79-90.75-1.37-6.07-42.22-97.58-42.22-97.58l39.87,1.57Z" style="fill:#263238"></path><path d="M165.52,453.72c-2.41.16-67.39-17-69.42-19.13a.82.82,0,0,1-.15-.44C95.69,432,99,424,101.34,413.83c.15-.66,1.37-3.76,3.09-7.94,4.71-11.51,13.13-31.26,13.13-31.26L160,385.52l-15.63,31.4-2.11,7.39s21.45,17.17,23.41,19.77S167.92,453.55,165.52,453.72Z" style="fill:#eb9481"></path><path d="M165.52,453.72c-2.41.16-67.39-17-69.42-19.13a.82.82,0,0,1-.15-.44C95.69,432,99,424,101.34,413.83c.15-.66,1.37-3.76,3.09-7.94l39.93,11-2.11,7.39s21.45,17.17,23.41,19.77S167.92,453.55,165.52,453.72Z" style="fill:#fff"></path><path d="M165.52,453.72c-2.41.16-67.4-17-69.42-19.13-.77-.81.91-9.6,5.24-20.76l40.91,10.49s21.45,17.15,23.42,19.75S167.92,453.55,165.52,453.72Z" style="fill:#79A2EE"></path><path d="M165.27,451c-10.56-3-53.44-14.2-64.11-16.38-.09,0-.1,0,0,.06,10.4,3.22,53.37,14.06,64.08,16.49C165.45,451.17,165.49,451,165.27,451Z" style="fill:#263238"></path><path d="M162.18,440.74a8.82,8.82,0,0,0-7,.94,8.55,8.55,0,0,0-3.85,5.06.07.07,0,0,0,.13,0,10.2,10.2,0,0,1,10.72-5.9C162.23,440.88,162.27,440.76,162.18,440.74Z" style="fill:#263238"></path><path d="M146.09,426.44c-4.23-1.16-9.56-.94-13.1,1.86-.14.1,0,.3.16.26A60.66,60.66,0,0,1,146,427,.28.28,0,0,0,146.09,426.44Z" style="fill:#263238"></path><path d="M149.05,428.58c-4.24-1.17-9.56-.95-13.11,1.85-.14.11,0,.3.16.27A60,60,0,0,1,149,429.12.28.28,0,0,0,149.05,428.58Z" style="fill:#263238"></path><path d="M152,430.71c-4.24-1.16-9.56-.94-13.11,1.85-.14.11,0,.3.16.27a61.34,61.34,0,0,1,12.89-1.58A.28.28,0,0,0,152,430.71Z" style="fill:#263238"></path><path d="M155,432.84c-4.24-1.16-9.56-.94-13.11,1.85-.13.11,0,.3.17.27a61.17,61.17,0,0,1,12.88-1.58A.28.28,0,0,0,155,432.84Z" style="fill:#263238"></path><path d="M106.49,425.17c-4.78-1.22-6.69,6.2-1.91,7.43S111.27,426.4,106.49,425.17Z" style="fill:#263238"></path><path d="M153.64,416.29c-1.69-2.35-4.86-1.31-6.67.2a23,23,0,0,0-6.68,9.88.11.11,0,0,0,.1.15c0,.33.3.68.67.54,3.57-1.3,7.56-2.26,10.62-4.63C153.47,421.05,155.24,418.5,153.64,416.29ZM146.07,424c-1.74.69-3.5,1.29-5.22,2a68.72,68.72,0,0,1,4-5.69,25.46,25.46,0,0,1,2.3-2.46c1.29-1.17,6.39-3.64,5.61,1.1C152.36,421.57,148.15,423.15,146.07,424Z" style="fill:#263238"></path><path d="M129.31,425.2c3.55,1.53,7.65,1.47,11.43,1.85a.54.54,0,0,0,.52-.7.11.11,0,0,0,.06-.17,23.07,23.07,0,0,0-8.93-7.9c-2.13-1-5.45-1.24-6.51,1.45S127.23,424.31,129.31,425.2Zm-1.94-3.09c-1.93-4.39,3.62-3.27,5.16-2.46a24.88,24.88,0,0,1,2.84,1.82,67.12,67.12,0,0,1,5.31,4.5c-1.84-.3-3.7-.44-5.56-.67C132.91,425,128.43,424.54,127.37,422.11Z" style="fill:#263238"></path><path d="M151,414.91,103.5,402.43s35.52-85.57,35.15-91.76c-.33-5.48-23.34-57.55-25.17-66.54-3-14.73,4.19-27.89,11.14-36L173.79,222s.4,7.66-3.56,11.9c-1.11,1.19-7,3.61-7,3.61s20.35,54,21.14,70.94S151,414.91,151,414.91Z" style="fill:#455a64"></path><path d="M152,406.05c-6.9-2-4.89-1.5-11.81-3.4-3.38-.93-25.63-7-28.94-7.32a.07.07,0,0,0,0,.14c3,1.36,25.39,7,28.79,7.92,7,1.76,5,1.18,12,2.87A.11.11,0,0,0,152,406.05Z" style="fill:#263238"></path><path d="M170.23,233.85a88.08,88.08,0,0,0-13.61,6.42.15.15,0,0,0,.13.27c4.59-2,9.27-3.92,13.74-6.16A.3.3,0,0,0,170.23,233.85Z" style="fill:#263238"></path><path d="M164.45,232.64a22.24,22.24,0,0,0-.88,2.65,5.77,5.77,0,0,0-.34,2.17c0,.14.21.15.29,0a7.57,7.57,0,0,0,.92-2.12c.3-.82.61-1.64.89-2.47C165.51,232.38,164.67,232.11,164.45,232.64Z" style="fill:#263238"></path><path d="M164.46,228.18c.19-.76.39-1.51.6-2.26s.49-1.55.65-2.34c0-.12.22-.06.19.06-.2.76-.28,1.55-.42,2.32s-.28,1.54-.43,2.3c-.28,1.43-.67,2.87-1.09,4.27a5.11,5.11,0,0,0,2.19-.68,4,4,0,0,0,1.34-2.1c.31-.85.58-1.72.9-2.57a17.24,17.24,0,0,0,1-2.87c0-.13.22-.07.19.05a31.42,31.42,0,0,1-1.75,6.07c-.34.77-.59,1.56-1.34,1.94a6.78,6.78,0,0,1-2.64.51c-.11.05-.26,0-.24-.14A44.27,44.27,0,0,1,164.46,228.18Z" style="fill:#263238"></path><path d="M127.83,230.3c.77-.41,3.76.31,9.21-.62a6.29,6.29,0,0,0,2.94-1.19,15.51,15.51,0,0,0,3.35-4.62,23.63,23.63,0,0,0,2.35-5.7c0-.12.2-.06.18.06-.2,1.12-.32,2.25-.61,3.37a21.1,21.1,0,0,1-1.13,3.05,12.38,12.38,0,0,1-3.44,5.09c-1.74,1.31-4.17,1.55-6.27,1.7-1.22.08-6-.05-6.64-.73A.26.26,0,0,1,127.83,230.3Z" style="fill:#263238"></path><path d="M184.58,301.87a95,95,0,0,0-2.86-9.95q-1.58-5.06-3.16-10.1-3.18-10.15-6.43-20.3c-2.43-7.56-5.45-14.84-8.19-22.3,0-.09-.19-.05-.15.05.54,1.67,5.52,16.6,6.52,19.94,2,6.72,4.11,13.41,6.2,20.11q1.58,5,3.16,10.1c1,3.26,2.11,6.51,3,9.8a30.55,30.55,0,0,1,1.19,10.1,79.7,79.7,0,0,1-1.49,10.19,156.22,156.22,0,0,1-5.89,21.77c-.14.41.5.56.65.16a147.12,147.12,0,0,0,5.78-19.59C184.38,315.34,185.89,308.52,184.58,301.87Z" style="fill:#263238"></path><path d="M146.53,310.44a46.36,46.36,0,0,0-2.44-8.63q-3.14-9.15-6.5-18.21t-7-18c-2.34-5.81-5-11.54-6.83-17.54a40.38,40.38,0,0,1-1.64-17.26,38.21,38.21,0,0,1,5.52-15.31,34.74,34.74,0,0,1,2.48-3.43.08.08,0,0,0-.11-.11,38.39,38.39,0,0,0-8.45,29.68c.9,6.06,3.18,11.77,5.48,17.41q3.67,9,7.16,18.09t6.67,18.15c1.08,3.07,2.16,6.16,3.2,9.26a24.34,24.34,0,0,1,1.7,9.07,30.84,30.84,0,0,1-2.43,9.08c-1.18,3.05-2.38,6.09-3.57,9.14l-7.22,18.54q-7.16,18.36-14.27,36.75l-1.8,4.68c-.14.35.47.59.61.24q7.2-18.21,14.32-36.46,3.58-9.18,7.18-18.36,1.78-4.6,3.59-9.19c1.15-3,2.42-5.9,3.37-8.93A19.54,19.54,0,0,0,146.53,310.44Z" style="fill:#263238"></path><path d="M169.92,143.78c3.08,20.13,16.68,40.78,19.74,44.93,3.38,4.58,14.88,12.35,24.16,8.22,8.35-3.7,17.59-21.83,21.9-42.73.69-3.32-24.6-6-25.09-3.7-1.3,6.31-4.1,18.95-5.25,18.74-1.52-.28-15.5-15.41-24.26-25.91C170.23,130.27,169.08,138.3,169.92,143.78Z" style="fill:#eb9481"></path><path d="M236.86,135.26c1.36,5.31-.1,17.26-1.56,20s-21.85.93-23.58-1.75-4.91-20.92-2.61-26S235.45,129.76,236.86,135.26Z" style="fill:#eb9481"></path><path d="M207.14,136.05c2.07,2,3.28-1.58,3.28-1.58s-.49,5.61,2.46,6.88,4.15-3.19,4.25-3.5c0,.3-.34,5.46,2.75,6.43s3.77-3.64,3.81-3.94c.06.29,1,4.07,3.52,4.28,4.32.35,2.2-9.4,4.22-12.27,0,0,5.26,2.86,5.43,2.91,0,0-1.83-9.31-5.86-11.82a3,3,0,0,0-3.78.4s-.26-3.07-2.67-3.91c-1.24-.43-3,1.17-3,1.17A3.79,3.79,0,0,0,219,118c-1.75-.5-3.27,1.18-3.27,1.18s-1.39-2.21-3.34-2.13C208.48,117.22,202.71,131.69,207.14,136.05Z" style="fill:#eb9481"></path><path d="M215.47,119.45a0,0,0,0,0-.07,0,27,27,0,0,0-5.06,15.25c0,.18.28.25.32.06A55.31,55.31,0,0,1,215.47,119.45Z" style="fill:#263238"></path><path d="M221.52,121c0-.06-.06-.1-.1,0a25.34,25.34,0,0,0-4.49,17c0,.21.26.37.25.13C217,134,219.26,125.52,221.52,121Z" style="fill:#263238"></path><path d="M223.89,140.75c-.51-5.89.92-11.34,3.19-16.73,0-.07-.08-.11-.12-.06-1.83,2.34-2.92,5.93-3.53,8.79a15.69,15.69,0,0,0,.25,8C223.71,140.87,223.9,140.87,223.89,140.75Z" style="fill:#263238"></path><path d="M210.42,134.47a18.23,18.23,0,0,0,.32,3.23,5.91,5.91,0,0,0,1.24,2.85,2,2,0,0,0,1.25.64,2.86,2.86,0,0,0,1.42-.23,3.47,3.47,0,0,0,1.71-2.25l.65-2.29.19,2.38a9.84,9.84,0,0,0,.73,3.07,3.5,3.5,0,0,0,2,2.06,2,2,0,0,0,2.39-.75,6,6,0,0,0,.94-2.86l.26-2.81.67,2.73a9.16,9.16,0,0,0,.83,2.18,3.78,3.78,0,0,0,1.48,1.6,1.79,1.79,0,0,0,1.88-.13,4,4,0,0,0,1.1-1.93,31.37,31.37,0,0,0,.83-4.81c.11-.82.21-1.65.36-2.46a5.67,5.67,0,0,1,.8-2.34,6.4,6.4,0,0,0-.58,2.37c-.08.82-.12,1.64-.16,2.46a26.45,26.45,0,0,1-.6,5,4.54,4.54,0,0,1-1.24,2.35,2.55,2.55,0,0,1-2.77.3,4.7,4.7,0,0,1-1.89-1.94,9.86,9.86,0,0,1-1-2.41l.93-.08a7,7,0,0,1-1.07,3.4,3,3,0,0,1-1.58,1.15,3.21,3.21,0,0,1-1.92-.09,4.36,4.36,0,0,1-2.49-2.61,10.63,10.63,0,0,1-.75-3.39l.84.09a4.17,4.17,0,0,1-2.27,2.67,3.49,3.49,0,0,1-1.78.19,2.51,2.51,0,0,1-1.55-.88,6.19,6.19,0,0,1-1.14-3.15A15.64,15.64,0,0,1,210.42,134.47Z" style="fill:#263238"></path><path d="M210.63,150.5s-14.17-18.43-4.25-20.44c3-.6,15.76.47,15.6,3.05-.21,3.32-5.65,3.88-9.11,3.68,0,0,5.7,5.59,3,10.72A5.77,5.77,0,0,1,210.63,150.5Z" style="fill:#eb9481"></path><path d="M205.57,130.28a12.12,12.12,0,0,1,3.49-.61,26.47,26.47,0,0,1,3.56.06,40.54,40.54,0,0,1,7,1.09,6.68,6.68,0,0,1,1.75.72,2.37,2.37,0,0,1,.79.73,1.8,1.8,0,0,1,.25.54,1.75,1.75,0,0,1,.05.59,2.93,2.93,0,0,1-.87,1.88,5.42,5.42,0,0,1-1.61,1.08,10.6,10.6,0,0,1-3.58.83,22.65,22.65,0,0,1-3.59,0l.3-.71a14.19,14.19,0,0,1,1.68,2.15,13.08,13.08,0,0,1,1.24,2.41,9.2,9.2,0,0,1,.59,2.63,7.16,7.16,0,0,1-.32,2.65,7.63,7.63,0,0,0,0-2.61,9.23,9.23,0,0,0-.78-2.47,12.78,12.78,0,0,0-1.31-2.23,14.25,14.25,0,0,0-1.69-1.93l-.78-.72h1.08a24.91,24.91,0,0,0,3.46-.12,10.39,10.39,0,0,0,3.26-.79c1-.44,1.86-1.21,1.91-2.12s-1.07-1.31-2.13-1.63a30.8,30.8,0,0,0-3.38-.79c-1.15-.23-2.3-.44-3.46-.59A22.69,22.69,0,0,0,205.57,130.28Z" style="fill:#263238"></path><path d="M178.07,176.54l17.69-18.66s-11.56-12.55-18.34-19.22-10.44-4.8-7.5,10.69A137.6,137.6,0,0,0,178.07,176.54Z" style="fill:#79A2EE"></path><path d="M178.07,176.54l17.69-18.66s-11.56-12.55-18.34-19.22-10.44-4.8-7.5,10.69A137.6,137.6,0,0,0,178.07,176.54Z" style="fill:#79A2EE"></path><path d="M184.75,169.48l-6.69,7.06a137.21,137.21,0,0,1-8.14-27.19c-2-10.32-1-14.6,1.88-14.32Z" style="fill:#263238"></path><path d="M191.8,155.25c-1.27,1.19-2.42,2.5-3.61,3.75s-2.39,2.53-3.56,3.81c-2.35,2.56-4.7,5.13-7,7.74a.08.08,0,0,0,.11.11c2.48-2.43,4.89-4.94,7.25-7.49q1.74-1.86,3.41-3.78c1.17-1.34,2.39-2.65,3.47-4.06C191.92,155.27,191.85,155.2,191.8,155.25Z" style="fill:#263238"></path><path d="M115.8,215c.13.2,68.6,10.1,69.32,9.48,1-.86-4-77.26-9.69-87.43-1.22-2.17-6.11-3.41-10.4-3.49a19.56,19.56,0,0,0-3.34.21h-.11a8,8,0,0,0-2.56.83c-13.05,7.71-27.56,39-31.26,48.56C121.65,198.87,115.32,214.31,115.8,215Z" style="fill:#79A2EE"></path><path d="M172.09,146.46c-5.31-.39-9.65-7.24-11.31-12.13-.11-.34.93-3.48,2-7.36.64-2.36,1.3-5,1.74-7.45.08-.5,1.63.72,1.63.72l3,1.33L179.25,126a39.52,39.52,0,0,0-3.14,9.16,5.1,5.1,0,0,0-.07,1,1,1,0,0,1,0,.17C176,138.28,174.92,146.67,172.09,146.46Z" style="fill:#eb9481"></path><path d="M176,136.14a1,1,0,0,1,0,.17,10.7,10.7,0,0,1-1.59-.19c-10.32-2.05-9.3-15.45-9.3-15.45l4.06.9L179.25,126a39.52,39.52,0,0,0-3.14,9.16A5.1,5.1,0,0,0,176,136.14Z" style="fill:#263238"></path><path d="M167.9,98.69c-3.22,4.8-5.08,21-2.35,25.52,4,6.6,12.76,9.79,19,4.5,6-5.12,8.06-26.22,4.79-30.6C184.49,91.66,172.67,91.58,167.9,98.69Z" style="fill:#eb9481"></path><path d="M178.42,108a12.27,12.27,0,0,1,1.36-.51,2.32,2.32,0,0,1,1.48-.24.73.73,0,0,1,.49.77,1.85,1.85,0,0,1-1.32,1.34,2.76,2.76,0,0,1-2,.1A.8.8,0,0,1,178.42,108Z" style="fill:#263238"></path><path d="M189.91,109.69a12.27,12.27,0,0,0-1.11-.94,2.33,2.33,0,0,0-1.31-.75.76.76,0,0,0-.72.56,1.87,1.87,0,0,0,.77,1.72,2.81,2.81,0,0,0,1.81.76A.8.8,0,0,0,189.91,109.69Z" style="fill:#263238"></path><path d="M176.39,122.43c.22.29.42.68.81.78a2.87,2.87,0,0,0,1.2-.09s.07,0,0,.06a1.48,1.48,0,0,1-1.47.37,1.15,1.15,0,0,1-.69-1.09C176.27,122.4,176.36,122.39,176.39,122.43Z" style="fill:#263238"></path><path d="M178.43,120.52a14.43,14.43,0,0,1,4.95,1l.29-2.52c.28.2,1.72,1.15,1.77.71a56.81,56.81,0,0,0,.34-11.37.1.1,0,0,0-.2,0c-.48,3.48-.35,7-.78,10.53a6.39,6.39,0,0,0-1.65-.8,16.72,16.72,0,0,0-.3,2.45,11.45,11.45,0,0,0-4.3-.22C178,120.41,177.69,120.51,178.43,120.52Z" style="fill:#263238"></path><path d="M177.55,111.73a4,4,0,0,1,1,0,3.73,3.73,0,0,1,1,.3,3,3,0,0,1,.9.65,2.65,2.65,0,0,1,.55,1l.19.67-.67-.22a7,7,0,0,0-1.45-.33,3.08,3.08,0,0,0-1.52.17,2.23,2.23,0,0,1,1.51-.72,4.52,4.52,0,0,1,1.71.18l-.48.45a2.5,2.5,0,0,0-1-1.31A7.45,7.45,0,0,0,177.55,111.73Z" style="fill:#263238"></path><path d="M178.89,114.88a6.12,6.12,0,0,0,1.6-.23c.13,0,.61-.25.61-.34a3.17,3.17,0,0,0-.1-.79,1.93,1.93,0,0,1,.25.8,1,1,0,0,1-.68.57A3.29,3.29,0,0,1,178.89,114.88Z" style="fill:#263238"></path><path d="M189.64,113.1a3.31,3.31,0,0,0-.94-.22,3.63,3.63,0,0,0-1,.07,2.81,2.81,0,0,0-1,.42,2.63,2.63,0,0,0-.71.84l-.32.59.66-.07a6.45,6.45,0,0,1,1.39,0,2.79,2.79,0,0,1,1.35.48,2.1,2.1,0,0,0-1.23-1,3.85,3.85,0,0,0-1.59-.19l.34.53a2.42,2.42,0,0,1,1.23-1A7.31,7.31,0,0,1,189.64,113.1Z" style="fill:#263238"></path><path d="M187.75,115.8a5.65,5.65,0,0,1-1.41-.55c-.1-.06-.49-.36-.47-.45a3.21,3.21,0,0,1,.26-.73,2.17,2.17,0,0,0-.41.71,1,1,0,0,0,.51.68A3,3,0,0,0,187.75,115.8Z" style="fill:#263238"></path><path d="M178,120.42c-.68.24-1.35,1-1,1.24s1.7.12,2.69.18c.72,0,1.64.47,1.92,0S180.57,119.53,178,120.42Z" style="fill:#263238"></path><path d="M180.3,121.92a3.85,3.85,0,0,0-.58-.08c-1-.06-2.3.09-2.68-.18s.16-.85.76-1.15a2.79,2.79,0,0,1,1.75.41A1.94,1.94,0,0,1,180.3,121.92Z" style="fill:#ff99ba"></path><path d="M166.38,111.37c2.7.54,4.15-6,4.15-6s4.25.33,7.7-4.71c0,0,4.36,4.64,9,5,7.19.55,9.35-8.41,7.26-10.91-3-3.53-10.44-1.48-10.44-1.48s-9.1-5.31-13.76.56a5.22,5.22,0,0,0-6,3.8C162.67,102.36,164.37,111,166.38,111.37Z" style="fill:#263238"></path><path d="M169.38,105.85a9.31,9.31,0,0,0,5.86-1.45,7,7,0,0,0,3.14-5.6c0-.12.19-.11.19,0a8,8,0,0,1-2.8,6.22,6.51,6.51,0,0,1-6.43,1A.1.1,0,0,1,169.38,105.85Z" style="fill:#263238"></path><path d="M164.63,94.68c1.8-1.36,3.94-1.09,6-.48.12,0,0,.22-.06.18a5.86,5.86,0,0,0-5.8,1.42c-1.44,1.34-1.74,3.43-1.8,5.32a14.74,14.74,0,0,0,3.47,10s0,.1-.07.06a14.75,14.75,0,0,1-4-11C162.52,98.23,163,95.93,164.63,94.68Z" style="fill:#263238"></path><path d="M183.65,93.49a7,7,0,0,1,4.52-1.9,8.3,8.3,0,0,1,5.55,2.08,4.69,4.69,0,0,1,1.36,4.48,8.24,8.24,0,0,1-3.12,4.59c-.05,0-.1,0-.06-.06a8.17,8.17,0,0,0,2.61-4.23A4.3,4.3,0,0,0,193,94.12c-2.49-2-6.67-2.87-9.26-.49C183.68,93.71,183.56,93.57,183.65,93.49Z" style="fill:#263238"></path><path d="M167.93,112.51s-2.08-6-4.68-5.36-2,8.56.34,10.3a2.81,2.81,0,0,0,4-.43Z" style="fill:#eb9481"></path><path d="M163.47,109.43s-.07,0,0,.07c1.64,1.27,2.13,3.27,2.32,5.26a1.55,1.55,0,0,0-2.12-1c-.06,0,0,.11,0,.11a1.74,1.74,0,0,1,1.66,1.1,8.39,8.39,0,0,1,.46,1.72c0,.19.36.19.35,0v0C166.85,114.22,166,110.39,163.47,109.43Z" style="fill:#263238"></path><path d="M173.53,196.29s11.44,4,18.7,5.56c4.05.86,10.85,3,13.54,5,4,3,18.89,18,15.31,21.72-3.23,3.34-14.37-11.22-14.37-11.22s12.54,13.7,7.91,17-15-14.82-15-14.82,12.56,14.36,7.25,17c-4,2-14.36-13.88-14.36-13.88s10.71,12.42,6.67,14.65c-4.47,2.47-14.93-11.59-14.93-11.59-11.23,4-20-1.34-24.71-3.86C158.37,221.22,173.53,196.29,173.53,196.29Z" style="fill:#eb9481"></path><path d="M203.42,213.11c5.77,5.74,10.21,12.85,11.5,16a7.37,7.37,0,0,1,.27.7c-2.47-3.61-10.45-15-11.83-16.67C203.32,213.12,203.39,213.07,203.42,213.11Z" style="fill:#263238"></path><path d="M196.5,217.21c5,3.71,8.84,10.54,10.45,12.8.13.18,0,.19-.14,0-1.7-2.2-8.56-10.68-10.36-12.78C196.42,217.22,196.46,217.18,196.5,217.21Z" style="fill:#263238"></path><path d="M190.89,221a28.87,28.87,0,0,1,7.35,9.62c.1.19-.06.17-.19,0-2.53-3.43-4-5.59-7.26-9.51C190.74,221,190.82,220.94,190.89,221Z" style="fill:#263238"></path><path d="M160.19,138.34c-.34,8.49-12.76,48.29-12.55,49.91s27.79,8,33.94,10.63c4.18,1.77-3.86,29.69-11.9,27-12.46-4.16-50.65-13.43-54-25.07s22.76-47.44,28.62-54.58S160.47,131.3,160.19,138.34Z" style="fill:#eb9481"></path><path d="M128.18,163.55l25.17,5.28s4.63-16.42,6.76-25.69-1.39-11.4-13-.78A137.54,137.54,0,0,0,128.18,163.55Z" style="fill:#79A2EE"></path><path d="M158,155.5c-.42.68-.79,1.4-1.16,2.11v0c.42-1.66.81-3.32,1.08-5,0,0-.06-.07-.07,0-1,2.63-1.64,5.4-2.42,8.09a55.3,55.3,0,0,0-2,8.18c0,.08.1.15.14.06a47.18,47.18,0,0,0,2.45-8c.16-.59.31-1.19.47-1.8.08-.12.15-.25.23-.38a7,7,0,0,0,.56-1,16.34,16.34,0,0,0,.87-2.23C158.14,155.48,158.06,155.46,158,155.5Z" style="fill:#263238"></path><path d="M152.66,165.23c-1.66-.51-3.37-.86-5-1.26s-3.38-.81-5.08-1.19c-3.39-.76-6.78-1.51-10.19-2.2-.1,0-.14.13,0,.15,3.35.94,6.72,1.78,10.1,2.56,1.66.38,3.32.73,5,1.07s3.49.75,5.25,1C152.7,165.34,152.73,165.25,152.66,165.23Z" style="fill:#263238"></path><path d="M183.6,127.77c1.32.82,2.59,1.69,3.86,2.58s2.5,1.81,3.74,2.74,2.45,1.88,3.63,2.87,2.38,2,3.52,3c-1.33-.82-2.6-1.69-3.86-2.58s-2.51-1.81-3.74-2.74-2.45-1.88-3.64-2.87S184.73,128.83,183.6,127.77Z" style="fill:#263238"></path><path d="M198.43,133.38c-1.37-.68-2.7-1.44-4-2.2s-2.62-1.57-3.92-2.37-2.57-1.65-3.82-2.52-2.51-1.75-3.72-2.69c1.37.68,2.7,1.43,4,2.2s2.62,1.56,3.91,2.37,2.58,1.65,3.83,2.52S197.22,132.44,198.43,133.38Z" style="fill:#263238"></path><path d="M191.71,139.44c-1.13-.82-2.2-1.7-3.27-2.58s-2.1-1.81-3.14-2.74-2-1.87-3-2.86-2-2-2.88-3c1.13.82,2.2,1.7,3.27,2.59s2.1,1.8,3.14,2.73,2,1.88,3,2.86S190.79,138.39,191.71,139.44Z" style="fill:#263238"></path><path d="M205.54,133c-1.45-.54-2.86-1.15-4.27-1.77s-2.8-1.27-4.18-1.94-2.75-1.36-4.1-2.1-2.71-1.46-4-2.28c1.45.54,2.86,1.15,4.27,1.76s2.79,1.28,4.18,2,2.75,1.36,4.1,2.1S204.22,132.22,205.54,133Z" style="fill:#263238"></path><path d="M193.05,145.85c-1-.91-2-1.87-2.9-2.84s-1.85-2-2.75-3-1.77-2-2.62-3.1-1.69-2.11-2.47-3.23c1,.91,2,1.88,2.9,2.85s1.85,2,2.75,3,1.78,2,2.62,3.1S192.27,144.74,193.05,145.85Z" style="fill:#263238"></path><path d="M198.66,115.31a9.25,9.25,0,0,1-.13-1.48,9.37,9.37,0,0,1,.13-1.49,8.32,8.32,0,0,1,.12,1.49A8.21,8.21,0,0,1,198.66,115.31Z" style="fill:#263238"></path><path d="M196.65,116.1a8.85,8.85,0,0,1-1.14-1,8.68,8.68,0,0,1-1-1.13,8,8,0,0,1,1.14,1A8.15,8.15,0,0,1,196.65,116.1Z" style="fill:#263238"></path><path d="M195.79,118.07a9.31,9.31,0,0,1-3,0,9.31,9.31,0,0,1,3,0Z" style="fill:#263238"></path><path d="M196.57,120.08a8.73,8.73,0,0,1-2.1,2.1,8.15,8.15,0,0,1,1-1.14A8,8,0,0,1,196.57,120.08Z" style="fill:#263238"></path><path d="M198.54,120.94a8.33,8.33,0,0,1,.13,1.49,8.22,8.22,0,0,1-.13,1.48,8.21,8.21,0,0,1-.12-1.48A8.32,8.32,0,0,1,198.54,120.94Z" style="fill:#263238"></path><path d="M200.55,120.16a8.73,8.73,0,0,1,2.1,2.1,8.73,8.73,0,0,1-2.1-2.1Z" style="fill:#263238"></path><path d="M201.42,118.19a8.22,8.22,0,0,1,1.48-.13,8.33,8.33,0,0,1,1.49.13,8.32,8.32,0,0,1-1.49.12A8.21,8.21,0,0,1,201.42,118.19Z" style="fill:#263238"></path><path d="M200.63,116.18a8.77,8.77,0,0,1,1-1.14,8.65,8.65,0,0,1,1.14-1,8,8,0,0,1-1,1.14A8.15,8.15,0,0,1,200.63,116.18Z" style="fill:#263238"></path><path d="M175.75,139.1a6,6,0,0,1,0-2.39,5.56,5.56,0,0,1,0,2.39Z" style="fill:#263238"></path><path d="M174.14,139.73a5.31,5.31,0,0,1-.93-.76,5.23,5.23,0,0,1-.76-.93,5.66,5.66,0,0,1,.93.75A5.79,5.79,0,0,1,174.14,139.73Z" style="fill:#263238"></path><path d="M173.44,141.31a5.29,5.29,0,0,1-1.19.13,5.44,5.44,0,0,1-1.2-.13,5.43,5.43,0,0,1,1.2-.12A5.28,5.28,0,0,1,173.44,141.31Z" style="fill:#263238"></path><path d="M174.07,142.93a5.66,5.66,0,0,1-.75.93,5.39,5.39,0,0,1-.94.76,5.79,5.79,0,0,1,.76-.94A5.66,5.66,0,0,1,174.07,142.93Z" style="fill:#263238"></path><path d="M175.66,143.62a5.43,5.43,0,0,1,.12,1.2,5.34,5.34,0,0,1-.12,1.19,6,6,0,0,1-.13-1.19A6.12,6.12,0,0,1,175.66,143.62Z" style="fill:#263238"></path><path d="M177.27,143a5.79,5.79,0,0,1,.94.76,5.66,5.66,0,0,1,.75.93,5.66,5.66,0,0,1-.93-.75A5.79,5.79,0,0,1,177.27,143Z" style="fill:#263238"></path><path d="M178,141.41a5.56,5.56,0,0,1,2.39,0,6,6,0,0,1-2.39,0Z" style="fill:#263238"></path><path d="M177.34,139.79a5.23,5.23,0,0,1,.76-.93,5.31,5.31,0,0,1,.93-.76,5.39,5.39,0,0,1-.76.94A5.66,5.66,0,0,1,177.34,139.79Z" style="fill:#263238"></path><path d="M200.93,145.32a5.43,5.43,0,0,1-.12-1.2,5.34,5.34,0,0,1,.12-1.19,5.36,5.36,0,0,1,.13,1.19A5.44,5.44,0,0,1,200.93,145.32Z" style="fill:#263238"></path><path d="M199.32,146a6,6,0,0,1-1.69-1.69,5.67,5.67,0,0,1,1.69,1.69Z" style="fill:#263238"></path><path d="M198.62,147.53a5.51,5.51,0,0,1-2.38,0,6,6,0,0,1,2.38,0Z" style="fill:#263238"></path><path d="M199.25,149.15a5.18,5.18,0,0,1-.75.93,5.71,5.71,0,0,1-.93.76,4.92,4.92,0,0,1,.75-.94A5.66,5.66,0,0,1,199.25,149.15Z" style="fill:#263238"></path><path d="M200.84,149.84A6.12,6.12,0,0,1,201,151a6,6,0,0,1-.13,1.19,5.34,5.34,0,0,1-.12-1.19A5.43,5.43,0,0,1,200.84,149.84Z" style="fill:#263238"></path><path d="M202.45,149.21a5.39,5.39,0,0,1,.94.76,5.18,5.18,0,0,1,.75.93,5.66,5.66,0,0,1-.93-.75A5.79,5.79,0,0,1,202.45,149.21Z" style="fill:#263238"></path><path d="M203.15,147.63a5.56,5.56,0,0,1,2.39,0,6,6,0,0,1-2.39,0Z" style="fill:#263238"></path><path d="M202.52,146a5.71,5.71,0,0,1,.76-.93,5.31,5.31,0,0,1,.93-.76,5.79,5.79,0,0,1-.76.94A5.66,5.66,0,0,1,202.52,146Z" style="fill:#263238"></path><path d="M176.85,139.86a0,0,0,0,0,0,0c0,3.15-.22,10.43-5.1,9.67a10.49,10.49,0,0,1-5.13-2.95,28.31,28.31,0,0,1-3.9-4.5,41,41,0,0,1-3.54-5.67c0-.09-.17,0-.12.08,1,2,1.89,4,3.12,5.93a24.6,24.6,0,0,0,4.2,5c1.54,1.35,3.38,2.7,5.47,2.92a4,4,0,0,0,4.22-2.73A17.52,17.52,0,0,0,176.85,139.86Z" style="fill:#263238"></path></g><g id="freepik--Virus--inject-24"><path d="M227.1,96l1.54-2.12c.07-.09-.28-.69-.17-.82s1.52.45,1.38.73-.58.22-.63.29-1.05,2.48-1.05,2.48Z" style="fill:#79A2EE"></path><path d="M228.61,93.09a3,3,0,0,0,1.16.57" style="opacity:0.1"></path><path d="M227.1,96l1.54-2.12c.07-.09-.28-.69-.17-.82s1.52.45,1.38.73-.58.22-.63.29-1.05,2.48-1.05,2.48Z" style="opacity:0.1"></path><path d="M223.52,96.06l-.41-2.58c0-.12-.68-.29-.69-.46s1.39-.76,1.49-.46-.26.56-.24.65,1,2.5,1,2.5Z" style="fill:#79A2EE"></path><path d="M222.55,93a3,3,0,0,0,1.22-.41" style="opacity:0.1"></path><path d="M223.52,96.06l-.41-2.58c0-.12-.68-.29-.69-.46s1.39-.76,1.49-.46-.26.56-.24.65,1,2.5,1,2.5Z" style="opacity:0.1"></path><path d="M221.05,98.65l-2.11-1.53c-.1-.07-.69.27-.82.16s.45-1.52.73-1.37.21.57.29.62,2.48,1,2.48,1Z" style="fill:#79A2EE"></path><path d="M218.16,97.14a3.08,3.08,0,0,0,.58-1.15" style="opacity:0.1"></path><path d="M221.05,98.65l-2.11-1.53c-.1-.07-.69.27-.82.16s.45-1.52.73-1.37.21.57.29.62,2.48,1,2.48,1Z" style="opacity:0.1"></path><path d="M221.13,102.23l-2.58.41c-.11,0-.29.68-.46.7s-.76-1.4-.45-1.49.55.25.64.23,2.5-1,2.5-1Z" style="fill:#79A2EE"></path><path d="M218,103.21a3.08,3.08,0,0,0-.42-1.23" style="opacity:0.1"></path><path d="M221.13,102.23l-2.58.41c-.11,0-.29.68-.46.7s-.76-1.4-.45-1.49.55.25.64.23,2.5-1,2.5-1Z" style="opacity:0.1"></path><path d="M223.73,104.7l-1.54,2.12c-.07.09.27.68.17.81s-1.53-.45-1.38-.73.57-.21.62-.28,1.06-2.49,1.06-2.49Z" style="fill:#79A2EE"></path><path d="M222.22,107.59a3,3,0,0,0-1.16-.57" style="opacity:0.1"></path><path d="M223.73,104.7l-1.54,2.12c-.07.09.27.68.17.81s-1.53-.45-1.38-.73.57-.21.62-.28,1.06-2.49,1.06-2.49Z" style="opacity:0.1"></path><path d="M227.31,104.62s.39,2.46.4,2.58.68.29.7.46-1.4.76-1.49.46.26-.56.24-.65-1-2.5-1-2.5Z" style="fill:#79A2EE"></path><path d="M228.28,107.72a3,3,0,0,0-1.22.42" style="opacity:0.1"></path><path d="M227.31,104.62s.39,2.46.4,2.58.68.29.7.46-1.4.76-1.49.46.26-.56.24-.65-1-2.5-1-2.5Z" style="opacity:0.1"></path><path d="M229.78,102l2.11,1.53c.09.07.69-.27.82-.16s-.45,1.52-.73,1.37-.21-.57-.29-.62-2.48-1.06-2.48-1.06Z" style="fill:#79A2EE"></path><path d="M232.66,103.53a3,3,0,0,0-.57,1.16" style="opacity:0.1"></path><path d="M229.78,102l2.11,1.53c.09.07.69-.27.82-.16s-.45,1.52-.73,1.37-.21-.57-.29-.62-2.48-1.06-2.48-1.06Z" style="opacity:0.1"></path><path d="M229.69,98.45l2.58-.41c.12,0,.3-.68.46-.7s.76,1.4.46,1.49-.55-.25-.64-.23-2.5,1-2.5,1Z" style="fill:#79A2EE"></path><path d="M232.8,97.47a3.1,3.1,0,0,0,.41,1.22" style="opacity:0.1"></path><path d="M229.69,98.45l2.58-.41c.12,0,.3-.68.46-.7s.76,1.4.46,1.49-.55-.25-.64-.23-2.5,1-2.5,1Z" style="opacity:0.1"></path><path d="M226.56,95.59l1.62-3.2c.06-.11-.35-.66-.26-.8s1.57.27,1.46.56-.54.28-.59.37S227.7,96,227.7,96Z" style="fill:#79A2EE"></path><path d="M228.06,91.62a3.07,3.07,0,0,0,1.23.43" style="opacity:0.1"></path><path d="M222.94,96.23s-1.09-3.3-1.12-3.41-.72-.22-.75-.38,1.3-.92,1.43-.63-.19.58-.16.67,1.71,3.26,1.71,3.26Z" style="fill:#79A2EE"></path><path d="M221.19,92.36a3,3,0,0,0,1.17-.56" style="opacity:0.1"></path><path d="M220.82,99.25l-3.2-1.63c-.11-.05-.66.36-.8.27s.27-1.58.56-1.46.28.54.37.58,3.51,1.1,3.51,1.1Z" style="fill:#79A2EE"></path><path d="M216.85,97.75a3.07,3.07,0,0,0,.43-1.23" style="opacity:0.1"></path><path d="M221.46,102.87,218.05,104c-.12,0-.21.72-.38.75s-.92-1.3-.63-1.43.58.19.67.16,3.26-1.71,3.26-1.71Z" style="fill:#79A2EE"></path><path d="M217.59,104.62a3,3,0,0,0-.56-1.17" style="opacity:0.1"></path><path d="M224.48,105l-1.62,3.2c-.06.1.35.65.26.8s-1.57-.27-1.46-.57.54-.28.58-.36,1.1-3.51,1.1-3.51Z" style="fill:#79A2EE"></path><path d="M223,109a3.07,3.07,0,0,0-1.23-.43" style="opacity:0.1"></path><path d="M228.1,104.35s1.09,3.3,1.12,3.41.72.21.75.38-1.3.92-1.43.63.19-.58.16-.67-1.71-3.26-1.71-3.26Z" style="fill:#79A2EE"></path><path d="M229.85,108.22a3,3,0,0,0-1.17.56" style="opacity:0.1"></path><path d="M230.22,101.33l3.2,1.62c.1.06.66-.35.8-.26s-.27,1.57-.56,1.46-.28-.55-.37-.59-3.51-1.1-3.51-1.1Z" style="fill:#79A2EE"></path><path d="M234.19,102.83a3.07,3.07,0,0,0-.43,1.23" style="opacity:0.1"></path><path d="M229.58,97.7,233,96.58c.11,0,.21-.71.38-.75s.92,1.31.63,1.44-.58-.19-.67-.16-3.26,1.71-3.26,1.71Z" style="fill:#79A2EE"></path><path d="M233.45,96a3,3,0,0,0,.56,1.17" style="opacity:0.1"></path><path d="M231.28,101.61a5.88,5.88,0,0,1-7,4.58,5.61,5.61,0,0,1-4.59-7.12,6,6,0,0,1,7.36-4.69,5.75,5.75,0,0,1,2.05.92A6.17,6.17,0,0,1,231.28,101.61Z" style="fill:#79A2EE"></path><path d="M231.28,101.61a5.88,5.88,0,0,1-7,4.58,6,6,0,0,1-4.41-3.46c1.41,1.11,4.32,2.9,7.24,1.52,4-1.92,3.76-6.54,2-9A6.17,6.17,0,0,1,231.28,101.61Z" style="opacity:0.1"></path><path d="M226,95.92h-1.38s0-.06,0-.15c.09-.56.38-2.45.39-2.57s-.64-.54-.6-.73.38-.17.78-.2,1,0,1,.2-.46.52-.47.62S226,95.92,226,95.92Z" style="fill:#79A2EE"></path><path d="M224.56,92.44a3.45,3.45,0,0,0,1.47,0Z" style="opacity:0.1"></path><path d="M224.61,95.77c.09-.56.38-2.45.39-2.57s-.64-.54-.6-.73.38-.17.78-.2a1.22,1.22,0,0,0-.37.16l0,0s0,.1,0,.16.43.31.44.46S224.64,95.69,224.61,95.77Z" style="opacity:0.1"></path><path d="M222.67,96.67l-1,1,0,0h0l-1.58-2.15c-.08-.11-.84.06-.95-.1s.43-.78.83-1.11c.19-.14.35-.22.43-.14s0,.69.1.77S222.67,96.67,222.67,96.67Z" style="fill:#79A2EE"></path><path d="M219.22,95.2a3.43,3.43,0,0,0,1-1.07Z" style="opacity:0.1"></path><path d="M221.65,97.58l-1.58-2.15c-.08-.11-.84.06-.95-.1s.43-.78.83-1.11a2.83,2.83,0,0,0-.37.59,1,1,0,0,0,0,.14c0,.06,0,.1,0,.11s.49-.07.65,0A26,26,0,0,1,221.65,97.58Z" style="opacity:0.1"></path><path d="M220.87,99.52v1.38h0l-2.71-.41c-.13,0-.55.64-.73.6a2.33,2.33,0,0,1-.08-1.74.11.11,0,0,1,.08,0c.21,0,.52.46.62.47S220.87,99.52,220.87,99.52Z" style="fill:#79A2EE"></path><path d="M217.39,100.93a3.44,3.44,0,0,0,0-1.47Z" style="opacity:0.1"></path><path d="M220.86,100.9l-2.71-.41c-.13,0-.55.64-.73.6a2.33,2.33,0,0,1-.08-1.74,1.36,1.36,0,0,0,0,1.07,1.27,1.27,0,0,0,.07.12s.08.08.11.08.39-.36.62-.35S220.72,100.86,220.86,100.9Z" style="opacity:0.1"></path><path d="M220.37,105.42c-.07.06,0,.48,0,.74a.32.32,0,0,1-.07.21c-.16.1-1.51-1-1.25-1.25s.69-.05.77-.11.77-.91,1.27-1.52h0l.53-.66,1,1Z" style="fill:#79A2EE"></path><path d="M220.15,106.27a3.55,3.55,0,0,0-1.07-1Z" style="opacity:0.1"></path><path d="M220.35,106.16a.32.32,0,0,1-.07.21c-.16.1-1.51-1-1.25-1.25s.69-.05.77-.11.77-.91,1.27-1.52A12.72,12.72,0,0,1,220,105.2c-.12.06-.47.06-.5.23,0,0,0,.06,0,.11a1.81,1.81,0,0,0,.25.35,2.3,2.3,0,0,0,.33.31l.05,0c.07,0,.12.06.15,0A.2.2,0,0,0,220.35,106.16Z" style="opacity:0.1"></path><path d="M226,108.08s-.12.08-.28.12c-.5.12-1.49.15-1.5-.12s.47-.52.48-.63-.12-1.44-.21-2.24h0c0-.34-.06-.59-.06-.59h1.38l-.42,2.72C225.42,107.47,226.08,107.89,226,108.08Z" style="fill:#79A2EE"></path><path d="M225.88,108.1a3.34,3.34,0,0,0-1.47.05Z" style="opacity:0.1"></path><path d="M225.76,108.2c-.5.12-1.49.15-1.5-.12s.47-.52.48-.63-.12-1.44-.21-2.24c.15.74.44,2.18.42,2.25s-.37.45-.28.58l0,0,.2.06A4,4,0,0,0,225.76,108.2Z" style="opacity:0.1"></path><path d="M230.87,106c-.31.34-.67.65-.81.51s0-.69-.1-.77-1.63-1.36-2.07-1.71h0l-.12-.09,1-1,1.63,2.22c.08.1.84-.07.95.09S231.14,105.63,230.87,106Z" style="fill:#79A2EE"></path><path d="M231.22,105.34a3.51,3.51,0,0,0-1,1.08Z" style="opacity:0.1"></path><path d="M230.87,106c-.31.34-.67.65-.81.51s0-.69-.1-.77-1.63-1.36-2.07-1.71h0s2.3,1.47,2.32,1.59,0,.62.13.64l.1,0A2.55,2.55,0,0,0,230.87,106Z" style="opacity:0.1"></path><path d="M233,101.23c-.11,0-.25-.13-.37-.26s-.2-.21-.25-.22-2.83.27-2.83.27V99.64l.56.09h0l2.15.33c.13,0,.55-.64.73-.61S233.38,101.23,233,101.23Z" style="fill:#79A2EE"></path><path d="M233.05,99.62a3.44,3.44,0,0,0,0,1.47Z" style="opacity:0.1"></path><path d="M233,101.23c-.11,0-.25-.13-.37-.26a1.84,1.84,0,0,0,.34,0l.06,0a.25.25,0,0,0,0-.09,1.65,1.65,0,0,0,0-.66A.84.84,0,0,0,233,100h0c0-.05-.05-.07-.08-.07s-.48.37-.74.33-1.38-.36-2-.54l2.15.33c.13,0,.55-.64.73-.61S233.38,101.23,233,101.23Z" style="opacity:0.1"></path><path d="M231.41,95.43c-.15.15-.69,0-.77.11s-1.82,2.18-1.82,2.18l-1-1,.21-.16h0l2-1.47c.1-.08-.07-.84.09-1s.48.21.81.52h0C231.28,95,231.54,95.31,231.41,95.43Z" style="fill:#79A2EE"></path><path d="M230.29,94.27a3.55,3.55,0,0,0,1.07,1Z" style="opacity:0.1"></path><path d="M231,94.69a1.45,1.45,0,0,0-.4-.16h-.08a.14.14,0,0,0-.15.11c0,.2.09.57,0,.69s-2.19,1.23-2.27,1.27l2-1.47c.1-.08-.07-.84.09-1S230.64,94.38,231,94.69Z" style="opacity:0.1"></path><g style="opacity:0.1"><path d="M223.55,104c-.05.13-.28.15-.49.05s-.34-.28-.28-.41.28-.15.5,0S223.61,103.83,223.55,104Z"></path><path d="M223.41,104.42a1.5,1.5,0,0,1-.84-.4.46.46,0,0,1-.14-.5c.09-.23.31-.22.52-.24,0,0,0,0,0,0-.36,0-.78.11-.72.55s.73.72,1.17.69A0,0,0,0,0,223.41,104.42Z"></path><path d="M224.36,96.64c0,.14-.22.28-.53.33s-.58,0-.6-.18.22-.29.53-.33S224.34,96.5,224.36,96.64Z"></path><path d="M223.55,97.26a1.13,1.13,0,0,1-.46-.15.33.33,0,0,1-.09-.5,1.07,1.07,0,0,1,.76-.42s0,0,0,0c-.35,0-.88.2-1,.58s.46.59.81.58C223.59,97.32,223.59,97.27,223.55,97.26Z"></path><path d="M228.76,98.41c0,.14-.2.25-.44.25s-.42-.13-.41-.27.19-.25.43-.24S228.76,98.27,228.76,98.41Z"></path><path d="M228.29,99a1.78,1.78,0,0,1-.66-.33c-.34-.36.18-.58.46-.66,0,0,0,0,0,0-.31,0-.77.21-.71.6s.58.54.9.48A0,0,0,0,0,228.29,99Z"></path><path d="M222,102.38c0,.11-.16.19-.34.18s-.33-.11-.32-.21.16-.2.34-.19S222,102.27,222,102.38Z"></path><path d="M221.58,102.81a1.35,1.35,0,0,1-.5-.27c-.25-.28.15-.44.37-.5,0,0,0,0,0,0-.24,0-.6.15-.56.45s.44.43.69.39C221.61,102.86,221.61,102.82,221.58,102.81Z"></path><path d="M229.84,102.52c0,.17-.18.35-.46.4s-.55,0-.58-.22.18-.35.47-.4S229.81,102.35,229.84,102.52Z"></path><path d="M228.81,102.23s0,0,0,0c-.27.2-.65.54-.38.91a.84.84,0,0,0,1,.16,0,0,0,0,0,0-.06,1.33,1.33,0,0,1-.74-.09C228.24,102.91,228.55,102.46,228.81,102.23Z"></path></g><path d="M222.45,186.1,224,184c.07-.1-.28-.69-.17-.82s1.52.45,1.38.73-.58.21-.63.29-1,2.48-1,2.48Z" style="fill:#79A2EE"></path><path d="M224,183.21a3,3,0,0,0,1.16.57" style="opacity:0.1"></path><path d="M222.45,186.1,224,184c.07-.1-.28-.69-.17-.82s1.52.45,1.38.73-.58.21-.63.29-1,2.48-1,2.48Z" style="opacity:0.1"></path><path d="M218.87,186.18l-.41-2.58c0-.11-.68-.29-.69-.46s1.39-.76,1.49-.45-.26.55-.24.64,1,2.5,1,2.5Z" style="fill:#79A2EE"></path><path d="M217.9,183.08a3.05,3.05,0,0,0,1.22-.42" style="opacity:0.1"></path><path d="M218.87,186.18l-.41-2.58c0-.11-.68-.29-.69-.46s1.39-.76,1.49-.45-.26.55-.24.64,1,2.5,1,2.5Z" style="opacity:0.1"></path><path d="M216.4,188.77l-2.11-1.53c-.1-.07-.69.27-.82.16s.45-1.52.73-1.37.21.57.29.62,2.48,1.06,2.48,1.06Z" style="fill:#79A2EE"></path><path d="M213.51,187.27a3.16,3.16,0,0,0,.58-1.16" style="opacity:0.1"></path><path d="M216.4,188.77l-2.11-1.53c-.1-.07-.69.27-.82.16s.45-1.52.73-1.37.21.57.29.62,2.48,1.06,2.48,1.06Z" style="opacity:0.1"></path><path d="M216.48,192.35l-2.58.41c-.11,0-.29.68-.46.7s-.76-1.4-.45-1.49.55.25.64.24,2.5-1,2.5-1Z" style="fill:#79A2EE"></path><path d="M213.38,193.33a3,3,0,0,0-.42-1.22" style="opacity:0.1"></path><path d="M216.48,192.35l-2.58.41c-.11,0-.29.68-.46.7s-.76-1.4-.45-1.49.55.25.64.24,2.5-1,2.5-1Z" style="opacity:0.1"></path><path d="M219.08,194.83l-1.54,2.11c-.07.09.27.69.17.82s-1.53-.45-1.38-.73.57-.21.62-.29,1.06-2.48,1.06-2.48Z" style="fill:#79A2EE"></path><path d="M217.57,197.71a3,3,0,0,0-1.16-.57" style="opacity:0.1"></path><path d="M219.08,194.83l-1.54,2.11c-.07.09.27.69.17.82s-1.53-.45-1.38-.73.57-.21.62-.29,1.06-2.48,1.06-2.48Z" style="opacity:0.1"></path><path d="M222.66,194.74s.39,2.47.4,2.58.68.3.7.46-1.4.76-1.49.46.26-.55.24-.64-1-2.5-1-2.5Z" style="fill:#79A2EE"></path><path d="M223.63,197.85a2.93,2.93,0,0,0-1.22.41" style="opacity:0.1"></path><path d="M222.66,194.74s.39,2.47.4,2.58.68.3.7.46-1.4.76-1.49.46.26-.55.24-.64-1-2.5-1-2.5Z" style="opacity:0.1"></path><path d="M225.13,192.15l2.11,1.54c.09.06.69-.28.82-.17s-.45,1.52-.73,1.38-.21-.58-.29-.63-2.48-1.05-2.48-1.05Z" style="fill:#79A2EE"></path><path d="M228,193.66a3,3,0,0,0-.57,1.16" style="opacity:0.1"></path><path d="M225.13,192.15l2.11,1.54c.09.06.69-.28.82-.17s-.45,1.52-.73,1.38-.21-.58-.29-.63-2.48-1.05-2.48-1.05Z" style="opacity:0.1"></path><path d="M225,188.57l2.58-.41c.12,0,.3-.68.47-.69s.75,1.39.45,1.48-.55-.25-.64-.23-2.5,1-2.5,1Z" style="fill:#79A2EE"></path><path d="M228.15,187.6a3.15,3.15,0,0,0,.41,1.22" style="opacity:0.1"></path><path d="M225,188.57l2.58-.41c.12,0,.3-.68.47-.69s.75,1.39.45,1.48-.55-.25-.64-.23-2.5,1-2.5,1Z" style="opacity:0.1"></path><path d="M221.91,185.71l1.62-3.2c.06-.1-.35-.65-.26-.8s1.57.27,1.46.57-.54.28-.59.36-1.09,3.51-1.09,3.51Z" style="fill:#79A2EE"></path><path d="M223.41,181.74a3.07,3.07,0,0,0,1.23.43" style="opacity:0.1"></path><path d="M218.29,186.35s-1.09-3.3-1.12-3.41-.72-.21-.75-.38,1.3-.92,1.43-.63-.19.58-.16.67,1.71,3.26,1.71,3.26Z" style="fill:#79A2EE"></path><path d="M216.54,182.48a3,3,0,0,0,1.17-.56" style="opacity:0.1"></path><path d="M216.17,189.37l-3.2-1.62c-.1-.06-.66.35-.8.26s.27-1.57.56-1.46.28.55.37.59,3.51,1.1,3.51,1.1Z" style="fill:#79A2EE"></path><path d="M212.2,187.87a3.07,3.07,0,0,0,.43-1.22" style="opacity:0.1"></path><path d="M216.81,193l-3.41,1.12c-.11,0-.21.71-.38.75s-.92-1.31-.63-1.43.58.18.67.15,3.26-1.7,3.26-1.7Z" style="fill:#79A2EE"></path><path d="M212.94,194.74a3,3,0,0,0-.56-1.17" style="opacity:0.1"></path><path d="M219.83,195.11l-1.62,3.2c-.06.11.35.66.26.8s-1.57-.26-1.46-.56.54-.28.59-.36,1.09-3.52,1.09-3.52Z" style="fill:#79A2EE"></path><path d="M218.33,199.08a3.07,3.07,0,0,0-1.23-.43" style="opacity:0.1"></path><path d="M223.45,194.47s1.09,3.3,1.12,3.41.72.22.75.38-1.3.93-1.43.64.19-.59.16-.68-1.71-3.26-1.71-3.26Z" style="fill:#79A2EE"></path><path d="M225.2,198.34a3,3,0,0,0-1.17.56" style="opacity:0.1"></path><path d="M225.57,191.45l3.2,1.63c.1,0,.66-.36.8-.27s-.27,1.58-.56,1.46-.28-.54-.37-.58-3.51-1.1-3.51-1.1Z" style="fill:#79A2EE"></path><path d="M229.54,193a3,3,0,0,0-.43,1.22" style="opacity:0.1"></path><path d="M224.93,187.83l3.41-1.12c.11,0,.21-.71.38-.75s.92,1.3.63,1.43-.58-.19-.67-.16-3.26,1.71-3.26,1.71Z" style="fill:#79A2EE"></path><path d="M228.8,186.08a3,3,0,0,0,.56,1.17" style="opacity:0.1"></path><path d="M226.63,191.74a5.87,5.87,0,0,1-7,4.57,6.06,6.06,0,1,1,2.77-11.8,5.43,5.43,0,0,1,2.05.92A6.16,6.16,0,0,1,226.63,191.74Z" style="fill:#79A2EE"></path><path d="M226.63,191.74a5.87,5.87,0,0,1-7,4.57,6,6,0,0,1-4.41-3.46c1.41,1.12,4.32,2.9,7.24,1.52,4-1.92,3.76-6.54,2-8.94A6.16,6.16,0,0,1,226.63,191.74Z" style="opacity:0.1"></path><path d="M221.32,186h-1.38s0,0,0-.15c.09-.56.38-2.45.39-2.56s-.64-.55-.6-.74.38-.16.78-.2,1,0,1,.2-.46.52-.47.62S221.32,186,221.32,186Z" style="fill:#79A2EE"></path><path d="M219.91,182.57a3.51,3.51,0,0,0,1.47,0Z" style="opacity:0.1"></path><path d="M220,185.89c.09-.56.38-2.45.39-2.56s-.64-.55-.6-.74.38-.16.78-.2a1,1,0,0,0-.37.17l0,0c0,.05,0,.09,0,.15s.43.32.44.46S220,185.81,220,185.89Z" style="opacity:0.1"></path><path d="M218,186.79l-1,1,0,0h0l-1.58-2.15c-.08-.11-.84.07-.95-.09s.43-.79.83-1.11c.19-.15.35-.23.43-.15s0,.7.1.78S218,186.79,218,186.79Z" style="fill:#79A2EE"></path><path d="M214.57,185.32a3.43,3.43,0,0,0,1-1.07Z" style="opacity:0.1"></path><path d="M217,187.7l-1.58-2.15c-.08-.11-.84.07-.95-.09s.43-.79.83-1.11a2.55,2.55,0,0,0-.37.58l0,.14c0,.06,0,.1,0,.12s.49-.07.65,0A27.29,27.29,0,0,1,217,187.7Z" style="opacity:0.1"></path><path d="M216.22,189.65V191h0l-2.71-.41c-.13,0-.55.64-.73.6a2.33,2.33,0,0,1-.08-1.74.11.11,0,0,1,.08,0c.21,0,.52.46.62.47S216.22,189.65,216.22,189.65Z" style="fill:#79A2EE"></path><path d="M212.74,191.05a3.44,3.44,0,0,0,0-1.47Z" style="opacity:0.1"></path><path d="M216.21,191l-2.71-.41c-.13,0-.55.64-.73.6a2.33,2.33,0,0,1-.08-1.74,1.39,1.39,0,0,0,0,1.08l.07.11c0,.06.08.09.11.08s.39-.36.62-.34S216.07,191,216.21,191Z" style="opacity:0.1"></path><path d="M215.72,195.55c-.07,0,0,.47,0,.74a.29.29,0,0,1-.07.2c-.16.11-1.51-1-1.25-1.25s.69,0,.77-.11.77-.9,1.27-1.52h0l.53-.67,1,1Z" style="fill:#79A2EE"></path><path d="M215.5,196.4a3.43,3.43,0,0,0-1.07-1Z" style="opacity:0.1"></path><path d="M215.7,196.29a.29.29,0,0,1-.07.2c-.16.11-1.51-1-1.25-1.25s.69,0,.77-.11.77-.9,1.27-1.52a13,13,0,0,1-1.11,1.72c-.12,0-.47,0-.5.22a.13.13,0,0,0,0,.11,1.36,1.36,0,0,0,.25.35,2.3,2.3,0,0,0,.33.31l.05,0a.21.21,0,0,0,.15,0A.24.24,0,0,0,215.7,196.29Z" style="opacity:0.1"></path><path d="M221.39,198.2s-.12.09-.28.12c-.5.12-1.49.15-1.5-.12s.47-.52.48-.62-.12-1.45-.21-2.24h0c0-.35-.06-.59-.06-.59h1.38l-.42,2.71C220.77,197.59,221.43,198,221.39,198.2Z" style="fill:#79A2EE"></path><path d="M221.23,198.22a3.51,3.51,0,0,0-1.47.05Z" style="opacity:0.1"></path><path d="M221.11,198.32c-.5.12-1.49.15-1.5-.12s.47-.52.48-.62-.12-1.45-.21-2.24c.15.74.44,2.18.42,2.24s-.37.46-.28.58l0,0a.52.52,0,0,0,.2.06A4,4,0,0,0,221.11,198.32Z" style="opacity:0.1"></path><path d="M226.22,196.07c-.31.35-.67.65-.81.52s0-.7-.1-.77-1.63-1.36-2.07-1.72h0l-.12-.1,1-1,1.63,2.21c.08.11.84-.07.95.09S226.49,195.76,226.22,196.07Z" style="fill:#79A2EE"></path><path d="M226.57,195.47a3.43,3.43,0,0,0-1,1.07Z" style="opacity:0.1"></path><path d="M226.22,196.07c-.31.35-.67.65-.81.52s0-.7-.1-.77-1.63-1.36-2.07-1.72h0s2.3,1.46,2.32,1.58,0,.62.13.64a.22.22,0,0,0,.1,0A2,2,0,0,0,226.22,196.07Z" style="opacity:0.1"></path><path d="M228.37,191.35c-.11,0-.25-.13-.37-.25s-.2-.22-.25-.22-2.83.26-2.83.26v-1.37l.56.08h0l2.15.33c.13,0,.55-.64.73-.6S228.73,191.35,228.37,191.35Z" style="fill:#79A2EE"></path><path d="M228.4,189.74a3.44,3.44,0,0,0,0,1.47Z" style="opacity:0.1"></path><path d="M228.37,191.35c-.11,0-.25-.13-.37-.25.09,0,.22,0,.34,0s0,0,.06,0a.19.19,0,0,0,0-.09,1.61,1.61,0,0,0,0-.65.77.77,0,0,0-.07-.2h0s0-.07-.08-.07-.48.38-.74.34-1.38-.36-2-.55l2.15.33c.13,0,.55-.64.73-.6S228.73,191.35,228.37,191.35Z" style="opacity:0.1"></path><path d="M226.76,185.55c-.15.16-.69,0-.77.11s-1.82,2.19-1.82,2.19l-1-1,.21-.15h0c.53-.4,1.91-1.41,2-1.47s-.07-.85.09-.95.48.21.81.51h0C226.63,185.1,226.89,185.43,226.76,185.55Z" style="fill:#79A2EE"></path><path d="M225.64,184.4a3.44,3.44,0,0,0,1.07,1Z" style="opacity:0.1"></path><path d="M226.32,184.81a1.41,1.41,0,0,0-.4-.15.12.12,0,0,0-.08,0c-.08,0-.14,0-.15.1s.09.57,0,.69-2.19,1.23-2.27,1.28c.53-.4,1.91-1.41,2-1.47s-.07-.85.09-.95S226,184.51,226.32,184.81Z" style="opacity:0.1"></path><g style="opacity:0.1"><path d="M218.91,194.08c-.06.13-.28.16-.5.06s-.34-.28-.28-.41.28-.15.5-.06S219,194,218.91,194.08Z"></path><path d="M218.76,194.54a1.44,1.44,0,0,1-.84-.4.45.45,0,0,1-.14-.49c.09-.23.31-.22.52-.24a0,0,0,0,0,0,0c-.36,0-.78.11-.72.55s.73.73,1.17.69A0,0,0,0,0,218.76,194.54Z"></path><path d="M219.71,186.76c0,.14-.22.29-.53.33s-.58,0-.6-.18.22-.28.53-.33S219.69,186.62,219.71,186.76Z"></path><path d="M218.9,187.39a1.31,1.31,0,0,1-.46-.15.34.34,0,0,1-.09-.51,1.07,1.07,0,0,1,.76-.42s0,0,0,0c-.35,0-.88.19-1,.57s.46.59.81.58C218.94,187.44,218.94,187.39,218.9,187.39Z"></path><path d="M224.11,188.54c0,.14-.2.25-.44.24s-.42-.12-.41-.27.19-.25.43-.24S224.11,188.4,224.11,188.54Z"></path><path d="M223.64,189.1a1.76,1.76,0,0,1-.66-.32c-.34-.36.18-.58.46-.66,0,0,0,0,0,0-.31,0-.77.22-.71.6s.58.54.9.48C223.67,189.17,223.67,189.12,223.64,189.1Z"></path><path d="M217.31,192.5c0,.11-.16.19-.34.18s-.33-.1-.32-.21.16-.19.34-.18S217.31,192.39,217.31,192.5Z"></path><path d="M216.93,192.93a1.41,1.41,0,0,1-.5-.26c-.25-.29.15-.45.37-.51,0,0,0,0,0,0-.24,0-.6.16-.56.45s.44.43.69.4A0,0,0,0,0,216.93,192.93Z"></path><path d="M225.19,192.64c0,.17-.18.36-.46.41s-.55-.05-.58-.23.18-.35.47-.4S225.16,192.47,225.19,192.64Z"></path><path d="M224.16,192.35s0,0,0,0c-.27.21-.65.54-.38.91a.81.81,0,0,0,1,.16,0,0,0,0,0,0,0,1.42,1.42,0,0,1-.74-.1C223.59,193,223.9,192.58,224.16,192.35Z"></path></g><path d="M106.15,176.22l4.45,3.23c.2.15,1.45-.57,1.73-.34s-1,3.2-1.54,2.89c-.36-.19-.45-1.2-.61-1.31s-5.22-2.22-5.22-2.22Z" style="fill:#79A2EE"></path><path d="M112.23,179.39a6.23,6.23,0,0,0-1.2,2.44" style="opacity:0.1"></path><path d="M106.15,176.22l4.45,3.23c.2.15,1.45-.57,1.73-.34s-1,3.2-1.54,2.89c-.36-.19-.45-1.2-.61-1.31s-5.22-2.22-5.22-2.22Z" style="opacity:0.1"></path><path d="M106,168.69l5.43-.86c.24,0,.62-1.43,1-1.47s1.59,2.94,1,3.14c-.38.12-1.17-.54-1.36-.5s-5.26,2.12-5.26,2.12Z" style="fill:#79A2EE"></path><path d="M112.51,166.64a6.39,6.39,0,0,0,.88,2.57" style="opacity:0.1"></path><path d="M106,168.69l5.43-.86c.24,0,.62-1.43,1-1.47s1.59,2.94,1,3.14c-.38.12-1.17-.54-1.36-.5s-5.26,2.12-5.26,2.12Z" style="opacity:0.1"></path><path d="M100.52,163.49l3.23-4.45c.15-.2-.57-1.45-.34-1.73s3.2.95,2.89,1.54c-.19.36-1.2.45-1.31.61s-2.22,5.22-2.22,5.22Z" style="fill:#79A2EE"></path><path d="M103.69,157.41a6.23,6.23,0,0,0,2.44,1.2" style="opacity:0.1"></path><path d="M100.52,163.49l3.23-4.45c.15-.2-.57-1.45-.34-1.73s3.2.95,2.89,1.54c-.19.36-1.2.45-1.31.61s-2.22,5.22-2.22,5.22Z" style="opacity:0.1"></path><path d="M93,163.66l-.86-5.43c0-.24-1.43-.62-1.47-1s2.94-1.6,3.14-1c.12.38-.54,1.17-.5,1.36s2.12,5.26,2.12,5.26Z" style="fill:#79A2EE"></path><path d="M90.94,157.13a6.39,6.39,0,0,0,2.57-.88" style="opacity:0.1"></path><path d="M93,163.66l-.86-5.43c0-.24-1.43-.62-1.47-1s2.94-1.6,3.14-1c.12.38-.54,1.17-.5,1.36s2.12,5.26,2.12,5.26Z" style="opacity:0.1"></path><path d="M87.79,169.12l-4.45-3.23c-.2-.15-1.45.57-1.72.34s.94-3.2,1.53-2.89c.36.19.45,1.2.61,1.31S89,166.87,89,166.87Z" style="fill:#79A2EE"></path><path d="M81.71,165.94a6.16,6.16,0,0,0,1.2-2.43" style="opacity:0.1"></path><path d="M87.79,169.12l-4.45-3.23c-.2-.15-1.45.57-1.72.34s.94-3.2,1.53-2.89c.36.19.45,1.2.61,1.31S89,166.87,89,166.87Z" style="opacity:0.1"></path><path d="M88,176.65l-5.43.86c-.25,0-.62,1.43-1,1.47s-1.59-2.94-1-3.14c.39-.12,1.17.54,1.36.5s5.26-2.12,5.26-2.12Z" style="fill:#79A2EE"></path><path d="M81.43,178.7a6.39,6.39,0,0,0-.88-2.57" style="opacity:0.1"></path><path d="M88,176.65l-5.43.86c-.25,0-.62,1.43-1,1.47s-1.59-2.94-1-3.14c.39-.12,1.17.54,1.36.5s5.26-2.12,5.26-2.12Z" style="opacity:0.1"></path><path d="M93.42,181.85l-3.23,4.45c-.15.2.57,1.45.34,1.72s-3.2-.94-2.89-1.53c.19-.36,1.2-.45,1.31-.61s2.22-5.22,2.22-5.22Z" style="fill:#79A2EE"></path><path d="M90.25,187.93a6.34,6.34,0,0,0-2.44-1.21" style="opacity:0.1"></path><path d="M93.42,181.85l-3.23,4.45c-.15.2.57,1.45.34,1.72s-3.2-.94-2.89-1.53c.19-.36,1.2-.45,1.31-.61s2.22-5.22,2.22-5.22Z" style="opacity:0.1"></path><path d="M101,181.67s.82,5.19.86,5.43,1.43.62,1.47,1-2.94,1.59-3.14,1c-.12-.39.54-1.17.5-1.36s-2.12-5.26-2.12-5.26Z" style="fill:#79A2EE"></path><path d="M103,188.21a6.23,6.23,0,0,0-2.57.88" style="opacity:0.1"></path><path d="M101,181.67s.82,5.19.86,5.43,1.43.62,1.47,1-2.94,1.59-3.14,1c-.12-.39.54-1.17.5-1.36s-2.12-5.26-2.12-5.26Z" style="opacity:0.1"></path><path d="M107,175.09l6.75,3.41c.21.12,1.37-.75,1.68-.55s-.57,3.31-1.19,3.07c-.38-.15-.59-1.15-.76-1.24s-7.4-2.31-7.4-2.31Z" style="fill:#79A2EE"></path><path d="M115.32,178.25a6.23,6.23,0,0,0-.9,2.57" style="opacity:0.1"></path><path d="M105.62,167.45l7.18-2.35c.24-.07.45-1.5.8-1.58s1.94,2.74,1.33,3c-.37.16-1.23-.39-1.41-.33s-6.87,3.59-6.87,3.59Z" style="fill:#79A2EE"></path><path d="M113.76,163.78a6.4,6.4,0,0,0,1.18,2.46" style="opacity:0.1"></path><path d="M99.27,163s3.29-6.53,3.41-6.75-.74-1.37-.55-1.68,3.31.56,3.07,1.19c-.14.38-1.15.59-1.23.76s-2.31,7.4-2.31,7.4Z" style="fill:#79A2EE"></path><path d="M102.43,154.65a6.39,6.39,0,0,0,2.57.9" style="opacity:0.1"></path><path d="M91.64,164.35s-2.29-6.94-2.36-7.18-1.5-.45-1.58-.8,2.74-1.94,3-1.33c.17.37-.39,1.23-.33,1.41s3.6,6.86,3.6,6.86Z" style="fill:#79A2EE"></path><path d="M88,156.21A6.4,6.4,0,0,0,90.42,155" style="opacity:0.1"></path><path d="M87.19,170.7s-6.53-3.29-6.74-3.41-1.38.74-1.68.55.56-3.31,1.18-3.07c.38.14.59,1.15.77,1.23s7.39,2.31,7.39,2.31Z" style="fill:#79A2EE"></path><path d="M78.83,167.54a6.41,6.41,0,0,0,.91-2.57" style="opacity:0.1"></path><path d="M88.53,178.33l-7.18,2.36c-.24.06-.44,1.5-.79,1.58s-2-2.74-1.34-3c.37-.16,1.23.4,1.41.34S87.5,176,87.5,176Z" style="fill:#79A2EE"></path><path d="M80.39,182a6.4,6.4,0,0,0-1.18-2.46" style="opacity:0.1"></path><path d="M94.88,182.78s-3.29,6.53-3.41,6.74.74,1.38.55,1.68S88.71,190.64,89,190c.14-.38,1.15-.59,1.23-.77s2.32-7.39,2.32-7.39Z" style="fill:#79A2EE"></path><path d="M91.72,191.14a6.35,6.35,0,0,0-2.57-.91" style="opacity:0.1"></path><path d="M102.52,181.44s2.28,6.94,2.35,7.18,1.5.44,1.58.79-2.74,2-3,1.34c-.17-.37.39-1.23.33-1.42s-3.59-6.86-3.59-6.86Z" style="fill:#79A2EE"></path><path d="M106.19,189.58a6.4,6.4,0,0,0-2.46,1.18" style="opacity:0.1"></path><path d="M109.5,176.14c-1.81,7.72-9.47,10.22-15.21,8.87a13,13,0,0,1-8.64-6.62,11.59,11.59,0,0,1-1-8.08c1.59-6.79,7-11.55,15-9.67a14.24,14.24,0,0,1,5.62,2.65A12.49,12.49,0,0,1,109.5,176.14Z" style="fill:#79A2EE"></path><path d="M109.5,176.14c-1.81,7.72-9.47,10.22-15.21,8.87a13,13,0,0,1-8.64-6.62c3.14,2.36,8.94,5.54,14.74,2.79,8-3.8,8-12.62,4.88-17.89A12.49,12.49,0,0,1,109.5,176.14Z" style="opacity:0.1"></path><path d="M106.27,173.84v-2.91l.32,0,5.4.83c.27,0,1.15-1.35,1.55-1.27.17,0,.34.81.41,1.63.08,1,0,2.1-.41,2.1s-1.1-1-1.32-1C111.85,173.25,106.27,173.84,106.27,173.84Z" style="fill:#79A2EE"></path><path d="M113.59,170.88a7.31,7.31,0,0,0,.09,3.09Z" style="opacity:0.1"></path><path d="M106.59,171l5.4.83c.27,0,1.15-1.35,1.55-1.27.17,0,.34.81.41,1.63a2.27,2.27,0,0,0-.34-.77.24.24,0,0,0-.09-.06c-.1-.06-.2,0-.32.07-.3.27-.66.9-1,.92S106.75,171,106.59,171Z" style="opacity:0.1"></path><path d="M104.7,166.9l-2-2.05a.44.44,0,0,0,.1-.08h0c.72-.54,4.33-3.19,4.53-3.33s-.14-1.77.2-2,1.65.9,2.33,1.75c.31.38.47.72.3.89-.31.32-1.46.09-1.62.23S104.7,166.9,104.7,166.9Z" style="fill:#79A2EE"></path><path d="M107.79,159.63a7.11,7.11,0,0,0,2.25,2.12Z" style="opacity:0.1"></path><path d="M102.78,164.76c.72-.54,4.33-3.19,4.53-3.33s-.14-1.77.2-2,1.65.9,2.33,1.75a5.06,5.06,0,0,0-1.24-.78,1.36,1.36,0,0,0-.28-.08c-.13,0-.22,0-.25.07-.1.33.15,1,0,1.36S103.13,164.57,102.78,164.76Z" style="opacity:0.1"></path><path d="M98.68,163.11h-2.9v0l.87-5.7c0-.28-1.35-1.16-1.27-1.55s3.18-.7,3.67-.16a.25.25,0,0,1,.06.16c0,.45-1,1.09-1,1.31C98.09,157.53,98.68,163.11,98.68,163.11Z" style="fill:#79A2EE"></path><path d="M95.73,155.78a7.13,7.13,0,0,0,3.09-.09Z" style="opacity:0.1"></path><path d="M95.79,163.09l.87-5.7c0-.28-1.35-1.16-1.27-1.55s3.18-.7,3.67-.16a2.8,2.8,0,0,0-2.26.07.89.89,0,0,0-.24.14c-.12.08-.19.17-.17.23.07.33.74.83.71,1.29S95.87,162.78,95.79,163.09Z" style="opacity:0.1"></path><path d="M86.27,162.06c-.12-.16-1,0-1.56-.05-.21,0-.37,0-.43-.14-.22-.34,2.1-3.18,2.64-2.64.32.32.08,1.46.22,1.63s1.9,1.61,3.2,2.67h0c.77.64,1.39,1.13,1.39,1.13l-2,2.05Z" style="fill:#79A2EE"></path><path d="M84.48,161.59a7.18,7.18,0,0,0,2.12-2.26Z" style="opacity:0.1"></path><path d="M84.71,162c-.21,0-.37,0-.43-.14-.22-.34,2.1-3.18,2.64-2.64.32.32.08,1.46.22,1.63s1.9,1.61,3.2,2.67a27,27,0,0,1-3.6-2.33c-.13-.27-.13-1-.48-1.06a.39.39,0,0,0-.23.06,3.88,3.88,0,0,0-.74.53,4.24,4.24,0,0,0-.66.7.61.61,0,0,0-.07.1c-.08.14-.12.25-.08.32A.47.47,0,0,0,84.71,162Z" style="opacity:0.1"></path><path d="M80.69,174c-.1,0-.19-.25-.27-.59-.24-1.05-.31-3.15.27-3.15s1.09,1,1.31,1,3-.25,4.71-.43h0l1.24-.12v2.9l-5.71-.88C82,172.67,81.09,174.07,80.69,174Z" style="fill:#79A2EE"></path><path d="M80.63,173.64a7.13,7.13,0,0,0-.09-3.09Z" style="opacity:0.1"></path><path d="M80.42,173.4c-.24-1.05-.31-3.15.27-3.15s1.09,1,1.31,1,3-.25,4.71-.43c-1.56.32-4.59.92-4.72.88s-1-.78-1.23-.58a.28.28,0,0,0-.06.08,1.92,1.92,0,0,0-.13.42A9.61,9.61,0,0,0,80.42,173.4Z" style="opacity:0.1"></path><path d="M85.17,184.15c-.73-.64-1.37-1.42-1.09-1.7s1.46-.08,1.62-.22,2.86-3.41,3.62-4.35h0l.2-.26,2,2-4.66,3.43c-.22.17.14,1.77-.19,2C86.56,185.2,85.83,184.73,85.17,184.15Z" style="fill:#79A2EE"></path><path d="M86.44,184.89a7.3,7.3,0,0,0-2.26-2.12Z" style="opacity:0.1"></path><path d="M85.17,184.15c-.73-.64-1.37-1.42-1.09-1.7s1.46-.08,1.62-.22,2.86-3.41,3.62-4.35h0s-3.08,4.85-3.34,4.89-1.3-.07-1.34.26a.43.43,0,0,0,0,.21A4.71,4.71,0,0,0,85.17,184.15Z" style="opacity:0.1"></path><path d="M95.1,188.68c0-.24.28-.53.54-.79s.45-.42.45-.52c0-.37-.55-6-.55-6h2.9s-.08.49-.18,1.17v0c-.26,1.62-.67,4.33-.7,4.53s1.35,1.15,1.28,1.54S95.1,189.44,95.1,188.68Z" style="fill:#79A2EE"></path><path d="M98.49,188.74a7.31,7.31,0,0,0-3.09.09Z" style="opacity:0.1"></path><path d="M95.1,188.68c0-.24.28-.53.54-.79a4.2,4.2,0,0,0,0,.72.2.2,0,0,0,.08.13.75.75,0,0,0,.18.08,3.25,3.25,0,0,0,1.38,0,1.93,1.93,0,0,0,.41-.14h0c.09,0,.14-.11.14-.17,0-.37-.79-1-.71-1.55.06-.38.76-2.9,1.16-4.31-.26,1.62-.67,4.33-.7,4.53s1.35,1.15,1.28,1.54S95.1,189.44,95.1,188.68Z" style="opacity:0.1"></path><path d="M107.3,185.3c-.32-.33-.08-1.46-.22-1.63s-4.61-3.82-4.61-3.82l2-2,.33.45h0c.83,1.13,3,4,3.09,4.21s1.77-.14,2,.2c.12.17-.44,1-1.08,1.7h0C108.25,185,107.56,185.56,107.3,185.3Z" style="fill:#79A2EE"></path><path d="M109.74,182.94a7.22,7.22,0,0,0-2.12,2.25Z" style="opacity:0.1"></path><path d="M108.86,184.36a3,3,0,0,0,.33-.84.55.55,0,0,0,0-.18c0-.16-.07-.28-.22-.3-.43-.07-1.21.19-1.45,0s-2.59-4.61-2.68-4.79c.83,1.13,3,4,3.09,4.21s1.77-.14,2,.2C110.06,182.83,109.5,183.66,108.86,184.36Z" style="opacity:0.1"></path><g style="opacity:0.1"><path d="M94.43,180.19c-.13.27-.59.32-1,.11s-.71-.59-.59-.86.59-.32,1-.12S94.55,179.92,94.43,180.19Z"></path><path d="M94.13,181.15a3.06,3.06,0,0,1-1.78-.84,1,1,0,0,1-.28-1c.18-.49.64-.47,1.08-.51,0,0,0,0,0,0-.75-.09-1.65.22-1.51,1.14.16,1.08,1.53,1.54,2.47,1.47C94.21,181.32,94.23,181.17,94.13,181.15Z"></path><path d="M99,165.26c0,.29-.59.47-1.25.4s-1.17-.37-1.14-.66.59-.48,1.25-.41S99.05,165,99,165.26Z"></path><path d="M97.05,166.13a2.75,2.75,0,0,1-.88-.54.74.74,0,0,1,.07-1.09A2.27,2.27,0,0,1,98,164a0,0,0,0,0,0-.06c-.73-.13-1.9,0-2.33.67-.56.93.63,1.43,1.34,1.6C97.09,166.26,97.11,166.16,97.05,166.13Z"></path><path d="M104.73,172.21c0,.3-.42.53-.91.52s-.89-.26-.88-.56.41-.53.91-.52S104.74,171.92,104.73,172.21Z"></path><path d="M103.74,173.41a3.81,3.81,0,0,1-1.38-.69c-.71-.75.38-1.22,1-1.39,0,0,0-.06,0-.05-.65.05-1.63.45-1.49,1.26s1.22,1.13,1.89,1A.08.08,0,0,0,103.74,173.41Z"></path><path d="M90.28,173c0,.22-.22.47-.6.55s-.72,0-.76-.27.22-.47.59-.55S90.23,172.76,90.28,173Z"></path><path d="M89.74,174.06a2.87,2.87,0,0,1-1.16-.28c-.67-.44.07-1,.49-1.22,0,0,0,0,0,0-.47.16-1.15.63-.9,1.22s1.12.64,1.61.44A.06.06,0,0,0,89.74,174.06Z"></path><path d="M108.18,174.48c.07.36-.37.74-1,.85s-1.15-.11-1.21-.47.38-.75,1-.85S108.12,174.11,108.18,174.48Z"></path><path d="M106,173.87s0,0,0,0c-.57.44-1.37,1.14-.8,1.92a1.74,1.74,0,0,0,2.17.34.07.07,0,0,0,0-.12,2.87,2.87,0,0,1-1.56-.2C104.81,175.31,105.47,174.35,106,173.87Z"></path></g></g></svg>